<svg width="30" height="36" viewBox="0 0 30 36" fill="none" xmlns="http://www.w3.org/2000/svg">
<circle cx="15" cy="15" r="15" fill="#D9D9D9"/>
<path d="M19.7622 22.04L19.7922 19.64C18.7122 21.8 17.1522 22.79 14.7522 22.79C10.9722 22.79 8.51223 19.97 8.51223 15.62C8.51223 11.12 11.0622 8.15 14.9322 8.15C15.6222 8.15 16.2522 8.24 16.8222 8.45C18.1722 8.93 19.0722 9.74 19.8522 11.27V9.74C19.8522 8.78 20.0022 8.57 20.6922 8.57C21.3522 8.57 21.5022 8.78 21.5022 9.74V21.62C21.5022 23.84 21.2922 24.98 20.6322 26.09C19.6422 27.77 17.6622 28.67 15.0222 28.67C12.6222 28.67 10.9122 27.98 9.86223 26.6C9.47223 26.03 9.26223 25.49 9.26223 24.98V24.83C9.35223 24.47 9.65223 24.29 10.1922 24.29C10.3422 24.29 10.4622 24.29 10.5522 24.32C10.7622 24.38 10.8822 24.53 10.9722 24.8C11.2122 25.55 11.3622 25.85 11.7222 26.18C12.5322 26.9 13.6122 27.26 15.0222 27.26C18.3522 27.26 19.7622 25.7 19.7622 22.04ZM15.1122 9.62C14.0022 9.62 13.2822 9.8 12.5322 10.31C11.1222 11.27 10.2822 13.16 10.2822 15.44C10.2822 16.61 10.4922 17.66 10.8822 18.62C11.5722 20.3 13.1322 21.32 14.9622 21.32C15.8922 21.32 16.7622 21.08 17.4522 20.6C18.9222 19.64 19.7622 17.78 19.7622 15.44C19.7622 14.18 19.5222 13.07 19.0722 12.08C18.3822 10.58 16.7922 9.62 15.1122 9.62Z" fill="black"/>
</svg>
