<svg width="30" height="36" viewBox="0 0 30 36" fill="none" xmlns="http://www.w3.org/2000/svg">
<circle cx="15" cy="15" r="15" fill="#D9D9D9"/>
<path d="M8.34184 4.16V4.64C8.34184 5.6 8.19184 5.81 7.44184 5.81C7.26184 5.81 7.11184 5.78 6.99184 5.75C6.66184 5.66 6.57184 5.42 6.57184 4.64V4.16C6.57184 3.2 6.72184 2.99 7.44184 2.99C7.62184 2.99 7.77184 3.02 7.89184 3.05C8.25184 3.14 8.34184 3.38 8.34184 4.16ZM8.34184 9.74V21.83C8.34184 22.79 8.19184 23 7.47184 23C7.26184 23 7.11184 22.97 6.99184 22.94C6.66184 22.85 6.57184 22.61 6.57184 21.83V9.74C6.57184 8.78 6.72184 8.57 7.47184 8.57C8.19184 8.57 8.34184 8.78 8.34184 9.74ZM14.4042 9.74V11.27C14.9142 10.4 15.1842 10.04 15.6042 9.65C16.5942 8.66 17.9442 8.15 19.5342 8.15C20.3742 8.15 21.2142 8.3 21.9342 8.63C23.1342 9.11 23.9442 10.04 24.3042 11.24C24.4842 11.81 24.5442 12.56 24.5442 13.73V21.83C24.5442 22.79 24.3942 23 23.6742 23C23.4642 23 23.3142 22.97 23.1942 22.94C22.8642 22.85 22.7742 22.61 22.7742 21.83V14.27C22.7742 12.47 22.6242 11.63 22.1442 11C21.5442 10.16 20.4642 9.68 19.1442 9.68C17.3742 9.68 15.9042 10.52 15.1842 11.93C14.6742 12.89 14.5242 13.85 14.5242 15.74V21.83C14.5242 22.79 14.3442 23 13.6242 23C12.9042 23 12.7542 22.79 12.7542 21.83V9.74C12.7542 8.78 12.9042 8.57 13.5942 8.57C14.2542 8.57 14.4042 8.78 14.4042 9.74Z" fill="black"/>
</svg>
