<svg width="30" height="36" viewBox="0 0 30 36" fill="none" xmlns="http://www.w3.org/2000/svg">
<circle cx="15" cy="15" r="15" fill="#D9D9D9"/>
<path d="M15.0796 10.04V19.16C15.0796 20.15 15.1396 20.66 15.3196 20.93C15.5296 21.35 16.0696 21.56 16.7896 21.56H17.0896C17.2096 21.53 17.3296 21.53 17.3596 21.53C17.4496 21.53 17.5096 21.53 17.5996 21.56C17.8996 21.68 18.0796 21.92 18.0796 22.28C18.0796 22.91 17.7196 23.09 16.6396 23.09C14.9896 23.09 14.1196 22.76 13.6696 21.92C13.3696 21.38 13.3096 20.84 13.3096 18.26V10.04H11.9596C11.0596 10.04 10.7896 9.89 10.7896 9.29C10.7896 8.75 11.0596 8.57 11.9596 8.57H13.3096V5.33C13.3096 4.34 13.4596 4.16 14.2096 4.16C14.9296 4.16 15.0796 4.37 15.0796 5.33V8.57H16.9096H17.2096C17.7796 8.57 18.0796 8.84 18.0796 9.32C18.0796 9.86 17.8096 10.04 16.9096 10.04H15.0796Z" fill="black"/>
</svg>
