<svg width="240" height="71" viewBox="0 0 240 71" fill="none" xmlns="http://www.w3.org/2000/svg">
<path d="M239.374 55.8744C239.344 55.5424 239.314 55.2105 239.284 54.8785C234.873 55.2795 230.462 55.6805 226.051 56.0815C177.295 60.5139 128.539 64.9462 79.7838 69.3785L80.1582 69.5C56.9928 49.2485 33.8275 28.9971 10.6621 8.74557C7.32745 5.83039 3.99282 2.91521 0.658186 2.98735e-05C0.438796 0.250987 0.219407 0.501943 1.69029e-05 0.7529C3.33465 3.66808 6.66928 6.58326 10.0039 9.49844C33.1693 29.7499 56.3346 50.0014 79.5 70.2529L79.6631 70.3944L79.8744 70.3744C128.63 65.9421 177.386 61.5098 226.141 57.0774C230.552 56.6764 234.963 56.2754 239.374 55.8744Z" fill="url(#paint0_linear_18_331)" fill-opacity="0.27"/>
<defs>
<linearGradient id="paint0_linear_18_331" x1="-489.671" y1="110.877" x2="836.829" y2="-668.623" gradientUnits="userSpaceOnUse">
<stop offset="0.0312692" stop-color="#DAC1EF"/>
<stop offset="0.480769" stop-color="white"/>
<stop offset="1" stop-color="#7D6F89"/>
</linearGradient>
</defs>
</svg>
