<svg width="382" height="164" viewBox="0 0 382 164" fill="none" xmlns="http://www.w3.org/2000/svg">
<path d="M48.9105 73.2916C48.6157 73.136 48.3209 72.9804 48.0261 72.8248C45.0515 78.4608 42.077 84.0968 39.1025 89.7327C26.2437 114.097 13.3849 138.461 0.526069 162.825L9.49295e-05 163.817L1.09099 163.543C53.091 150.376 105.091 137.21 157.091 124.043L158.453 123.7L157.179 123.105C126.79 108.961 96.4011 94.8165 66.0121 80.6723C60.2345 77.9831 54.4569 75.294 48.6792 72.6049C48.5386 72.9071 48.3979 73.2093 48.2573 73.5115C54.0349 76.2006 59.8125 78.8897 65.5901 81.5789C95.9791 95.7231 126.368 109.867 156.757 124.012L156.846 123.074C104.846 136.24 52.8455 149.407 0.845532 162.574L1.41045 163.292C14.2693 138.928 27.128 114.564 39.9868 90.1995C42.9614 84.5635 45.9359 78.9276 48.9105 73.2916ZM156.548 123.288C156.828 123.468 157.108 123.648 157.389 123.828C160.044 119.695 162.698 115.562 165.353 111.428C189.032 74.5618 212.71 37.6951 236.389 0.828418L235.867 1.04791C279.556 10.0559 323.245 19.0639 366.934 28.0719C371.745 29.0639 376.556 30.0559 381.367 31.0479C381.435 30.7214 381.502 30.395 381.569 30.0685C376.758 29.0765 371.947 28.0845 367.136 27.0925C323.447 18.0845 279.758 9.07651 236.069 0.0685131L235.731 3.12222e-06L235.548 0.288006C211.869 37.1547 188.19 74.0214 164.512 110.888C161.857 115.021 159.202 119.155 156.548 123.288Z" fill="url(#paint0_linear_18_321)" fill-opacity="0.27"/>
<defs>
<linearGradient id="paint0_linear_18_321" x1="8.46823" y1="805.058" x2="1334.97" y2="25.5582" gradientUnits="userSpaceOnUse">
<stop offset="0.0312692" stop-color="#DAC1EF"/>
<stop offset="0.480769" stop-color="white"/>
<stop offset="1" stop-color="#7D6F89"/>
</linearGradient>
</defs>
</svg>
