<svg width="220" height="73" viewBox="0 0 220 73" fill="none" xmlns="http://www.w3.org/2000/svg">
<path d="M116.204 -30C115.87 -30 115.537 -30 115.204 -30C115.204 -28.2917 115.204 -26.5833 115.204 -24.875C115.204 5.875 115.204 36.625 115.204 67.375C115.204 69.0833 115.204 70.7917 115.204 72.5C115.537 72.5 115.87 72.5 116.204 72.5C116.204 70.7917 116.204 69.0833 116.204 67.375C116.204 36.625 116.204 5.875 116.204 -24.875C116.204 -26.5833 116.204 -28.2917 116.204 -30ZM228.636 -14.0046C228.681 -14.3349 228.726 -14.6651 228.772 -14.9954C226.888 -15.2537 225.005 -15.512 223.122 -15.7704C189.222 -20.4204 155.322 -25.0704 121.422 -29.7204C119.538 -29.9787 117.655 -30.237 115.772 -30.4954C115.726 -30.1651 115.681 -29.8349 115.636 -29.5046C117.519 -29.2463 119.402 -28.988 121.286 -28.7296C155.186 -24.0796 189.086 -19.4296 222.986 -14.7796C224.869 -14.5213 226.752 -14.263 228.636 -14.0046ZM116.104 -30.2989C115.837 -30.0996 115.57 -29.9004 115.303 -29.7011C116.011 -28.7511 116.719 -27.8011 117.428 -26.8511C130.178 -9.75112 142.928 7.34887 155.678 24.4489C156.386 25.3989 157.094 26.3489 157.803 27.2989C158.07 27.0996 158.337 26.9004 158.604 26.7011C157.896 25.7511 157.188 24.8011 156.479 23.8511C143.729 6.75112 130.979 -10.3489 118.229 -27.4489C117.521 -28.3989 116.813 -29.3489 116.104 -30.2989ZM115.684 72.0004C115.697 72.3335 115.71 72.6665 115.723 72.9996C119.235 72.8619 122.747 72.7242 126.259 72.5865C165.247 71.0575 204.235 69.5286 243.223 67.9996L243.793 67.98L243.696 67.4129C239.475 43.5404 235.253 19.6679 231.032 -4.20463C230.42 -7.66545 229.808 -11.1262 229.196 -14.5871C228.868 -14.529 228.539 -14.471 228.211 -14.4129C228.823 -10.9521 229.435 -7.49132 230.047 -4.0305C234.269 19.842 238.49 43.7145 242.711 67.5871L243.184 67.0004C204.196 68.5293 165.208 70.0583 126.219 71.5872C122.708 71.7249 119.196 71.8627 115.684 72.0004ZM115.5 72.9567C115.636 72.6522 115.771 72.3478 115.907 72.0433C113.982 71.185 112.057 70.3267 110.132 69.4683C75.4822 54.0183 40.8322 38.5683 6.18223 23.1183C4.25722 22.26 2.33223 21.4017 0.407233 20.5433C0.271486 20.8478 0.13574 21.1522 -6.072e-06 21.4567C1.92499 22.315 3.84998 23.1733 5.775 24.0317C40.425 39.4817 75.075 54.9317 109.725 70.3817C111.65 71.24 113.575 72.0983 115.5 72.9567ZM228.253 -14.7176C228.554 -14.5725 228.854 -14.4275 229.154 -14.2824C229.395 -14.7824 229.637 -15.2824 229.879 -15.7824C234.229 -24.7824 238.579 -33.7824 242.929 -42.7824C243.17 -43.2824 243.412 -43.7824 243.654 -44.2824C243.354 -44.4275 243.054 -44.5725 242.753 -44.7176C242.512 -44.2176 242.27 -43.7176 242.028 -43.2176C237.678 -34.2176 233.328 -25.2176 228.978 -16.2176C228.737 -15.7176 228.495 -15.2176 228.253 -14.7176Z" fill="url(#paint0_linear_18_333)" fill-opacity="0.27"/>
<defs>
<linearGradient id="paint0_linear_18_333" x1="-1152.8" y1="842" x2="173.704" y2="62.5002" gradientUnits="userSpaceOnUse">
<stop offset="0.0312692" stop-color="#DAC1EF"/>
<stop offset="0.480769" stop-color="white"/>
<stop offset="1" stop-color="#7D6F89"/>
</linearGradient>
</defs>
</svg>
