<svg width="377" height="539" viewBox="0 0 377 539" fill="none" xmlns="http://www.w3.org/2000/svg">
<path d="M92.8257 174.98C92.5304 174.825 92.2352 174.67 91.94 174.516C90.8566 176.582 89.7733 178.649 88.69 180.716C69.19 217.916 49.69 255.116 30.19 292.316C29.1066 294.382 28.0233 296.449 26.94 298.516C27.2352 298.67 27.5304 298.825 27.8257 298.98C28.909 296.913 29.9923 294.847 31.0757 292.78C50.5757 255.58 70.0757 218.38 89.5757 181.18C90.659 179.113 91.7423 177.047 92.8257 174.98ZM197.883 175.248C197.883 174.914 197.883 174.581 197.883 174.248C196.124 174.248 194.366 174.248 192.608 174.248C160.958 174.248 129.308 174.248 97.6578 174.248C95.8995 174.248 94.1411 174.248 92.3828 174.248C92.3828 174.581 92.3828 174.914 92.3828 175.248C94.1411 175.248 95.8995 175.248 97.6578 175.248C129.308 175.248 160.958 175.248 192.608 175.248C194.366 175.248 196.124 175.248 197.883 175.248ZM101.386 254.307C101.717 254.268 102.048 254.228 102.379 254.188C102.221 252.863 102.063 251.538 101.904 250.213C99.0543 226.363 96.2043 202.513 93.3543 178.663C93.1959 177.338 93.0376 176.013 92.8793 174.688C92.5483 174.728 92.2173 174.768 91.8863 174.807C92.0447 176.132 92.203 177.457 92.3613 178.782C95.2113 202.632 98.0613 226.482 100.911 250.332C101.07 251.657 101.228 252.982 101.386 254.307ZM92 175.069C92.2552 174.855 92.5104 174.641 92.7656 174.426C91.2323 172.601 89.699 170.776 88.1656 168.951C60.5656 136.101 32.9656 103.251 5.36564 70.4011C3.83229 68.5761 2.29898 66.7511 0.76563 64.9261C0.510418 65.1406 0.255207 65.355 -5.49439e-06 65.5694C1.53334 67.3944 3.06666 69.2194 4.6 71.0444C32.2 103.894 59.8 136.744 87.4 169.594C88.9333 171.419 90.4667 173.244 92 175.069ZM27.724 298.382C27.4965 298.626 27.2691 298.87 27.0417 299.113C29.0417 300.98 31.0417 302.847 33.0417 304.713C69.0417 338.313 105.042 371.913 141.042 405.513C143.042 407.38 145.042 409.247 147.042 411.113C147.269 410.87 147.497 410.626 147.724 410.382C145.724 408.516 143.724 406.649 141.724 404.782C105.724 371.182 69.724 337.582 33.724 303.982C31.724 302.116 29.724 300.249 27.724 298.382ZM147.383 299.248C147.383 298.914 147.383 298.581 147.383 298.248C145.383 298.248 143.383 298.248 141.383 298.248C105.383 298.248 69.3828 298.248 33.3828 298.248C31.3828 298.248 29.3828 298.248 27.3828 298.248C27.3828 298.581 27.3828 298.914 27.3828 299.248C29.3828 299.248 31.3828 299.248 33.3828 299.248C69.3828 299.248 105.383 299.248 141.383 299.248C143.383 299.248 145.383 299.248 147.383 299.248ZM147.185 410.289C147.317 410.595 147.449 410.901 147.581 411.207C149.456 410.399 151.331 409.59 153.206 408.782C186.956 394.232 220.706 379.682 254.456 365.132C256.331 364.324 258.206 363.515 260.081 362.707C259.949 362.401 259.817 362.095 259.685 361.789C257.81 362.597 255.935 363.405 254.06 364.214C220.31 378.764 186.56 393.314 152.81 407.864C150.935 408.672 149.06 409.48 147.185 410.289ZM146.883 410.748C147.216 410.748 147.549 410.748 147.883 410.748C147.883 408.881 147.883 407.014 147.883 405.148C147.883 371.548 147.883 337.948 147.883 304.348C147.883 302.481 147.883 300.614 147.883 298.748C147.549 298.748 147.216 298.748 146.883 298.748C146.883 300.614 146.883 302.481 146.883 304.348C146.883 337.948 146.883 371.548 146.883 405.148C146.883 407.014 146.883 408.881 146.883 410.748ZM147.622 411.187C147.462 410.894 147.303 410.601 147.144 410.309C144.074 411.979 141.003 413.649 137.933 415.32C108.837 431.149 79.7402 446.979 50.6439 462.809L50.0903 463.106L50.5098 463.581C70.3489 485.806 90.1879 508.032 110.027 530.258C112.355 532.866 114.682 535.473 117.01 538.081C117.258 537.859 117.507 537.637 117.756 537.415C115.428 534.807 113.101 532.2 110.773 529.592C90.934 507.366 71.0949 485.141 51.2558 462.915L51.1218 463.687C80.2181 447.857 109.314 432.028 138.411 416.198C141.481 414.528 144.551 412.857 147.622 411.187ZM259.387 362.184C259.718 362.227 260.048 362.269 260.379 362.311C260.704 359.778 261.029 357.245 261.354 354.711C267.204 309.111 273.054 263.511 278.904 217.911C279.229 215.378 279.554 212.845 279.879 210.311C279.548 210.269 279.218 210.227 278.887 210.184C278.562 212.717 278.237 215.251 277.912 217.784C272.062 263.384 266.212 308.984 260.362 354.584C260.037 357.117 259.712 359.651 259.387 362.184ZM231.35 286.568C231.038 286.688 230.727 286.808 230.416 286.927C230.899 288.185 231.383 289.444 231.866 290.702C240.566 313.352 249.266 336.002 257.966 358.652C258.449 359.91 258.933 361.169 259.416 362.427C259.727 362.308 260.038 362.188 260.35 362.068C259.866 360.81 259.383 359.552 258.9 358.293C250.2 335.643 241.5 312.993 232.8 290.343C232.316 289.085 231.833 287.827 231.35 286.568ZM279.183 210.706C279.316 210.401 279.449 210.095 279.582 209.789C278.224 209.198 276.866 208.606 275.507 208.014C251.057 197.364 226.607 186.714 202.157 176.064C200.799 175.473 199.441 174.881 198.082 174.289C197.949 174.595 197.816 174.901 197.683 175.206C199.041 175.798 200.4 176.39 201.758 176.981C226.208 187.631 250.658 198.281 275.108 208.931C276.466 209.523 277.825 210.115 279.183 210.706ZM230.461 286.48C230.742 286.659 231.024 286.837 231.305 287.015C232.113 285.74 232.922 284.465 233.73 283.19C248.28 260.24 262.83 237.29 277.38 214.34C278.188 213.065 278.997 211.79 279.805 210.515C279.524 210.337 279.242 210.159 278.961 209.98C278.152 211.255 277.344 212.53 276.536 213.805C261.986 236.755 247.436 259.705 232.886 282.655C232.077 283.93 231.269 285.205 230.461 286.48ZM279.048 209.876C279.271 210.124 279.494 210.372 279.718 210.619C281.326 209.169 282.934 207.719 284.543 206.269C313.493 180.169 342.443 154.069 371.393 127.969C373.001 126.519 374.609 125.069 376.218 123.619C375.994 123.372 375.771 123.124 375.548 122.876C373.94 124.326 372.331 125.776 370.723 127.226C341.773 153.326 312.823 179.426 283.873 205.526C282.265 206.976 280.656 208.426 279.048 209.876ZM168.442 228.511C168.736 228.669 169.03 228.827 169.323 228.984C169.807 228.084 170.29 227.184 170.773 226.284C179.473 210.084 188.173 193.884 196.873 177.684C197.357 176.784 197.84 175.884 198.323 174.984C198.03 174.827 197.736 174.669 197.442 174.511C196.959 175.411 196.476 176.311 195.992 177.211C187.292 193.411 178.592 209.611 169.892 225.811C169.409 226.711 168.926 227.611 168.442 228.511ZM197.447 174.993C197.738 174.83 198.028 174.666 198.318 174.502C196.363 171.03 194.408 167.558 192.453 164.086C184.741 150.391 177.03 136.697 169.318 123.002L169.124 123.686C194.29 109.853 219.457 96.0193 244.624 82.1859L245.068 81.9441L244.817 81.5C231.292 57.7944 217.767 34.0889 204.241 10.3833C202.267 6.92221 200.292 3.4611 198.317 -1.02706e-05C198.028 0.165178 197.738 0.330366 197.449 0.495555C199.423 3.95666 201.398 7.41777 203.373 10.8789C216.898 34.5844 230.423 58.29 243.949 81.9956L244.142 81.3096C218.975 95.1429 193.809 108.976 168.642 122.81L168.198 123.056L168.447 123.493C176.159 137.188 183.87 150.882 191.582 164.577C193.537 168.049 195.492 171.521 197.447 174.993ZM147.033 299.105C147.266 298.867 147.499 298.629 147.732 298.39C146.974 297.649 146.216 296.907 145.457 296.165C131.807 282.815 118.157 269.465 104.507 256.115C103.749 255.374 102.991 254.632 102.232 253.89C101.999 254.129 101.766 254.367 101.533 254.605C102.292 255.347 103.05 256.089 103.808 256.83C117.458 270.18 131.108 283.53 144.758 296.88C145.517 297.622 146.275 298.364 147.033 299.105ZM230.954 287.243C230.907 286.913 230.859 286.583 230.812 286.253C229.42 286.453 228.028 286.653 226.637 286.853C201.587 290.453 176.537 294.053 151.487 297.653C150.095 297.853 148.703 298.053 147.312 298.253C147.359 298.583 147.407 298.913 147.454 299.243C148.846 299.043 150.237 298.843 151.629 298.643C176.679 295.043 201.729 291.443 226.779 287.843C228.171 287.643 229.562 287.443 230.954 287.243ZM101.705 253.78C101.824 254.092 101.942 254.404 102.061 254.715C103.177 254.29 104.294 253.865 105.411 253.44C125.511 245.79 145.611 238.14 165.711 230.49C166.827 230.065 167.944 229.64 169.061 229.215C168.942 228.904 168.824 228.592 168.705 228.28C167.588 228.705 166.472 229.13 165.355 229.555C145.255 237.205 125.155 244.855 105.055 252.505C103.938 252.93 102.822 253.355 101.705 253.78ZM169.224 228.383C168.997 228.626 168.769 228.869 168.541 229.113C169.575 230.08 170.608 231.046 171.641 232.013C190.241 249.413 208.841 266.813 227.441 284.213C228.475 285.18 229.508 286.146 230.541 287.113C230.769 286.869 230.997 286.626 231.224 286.383C230.191 285.416 229.158 284.449 228.124 283.483C209.524 266.083 190.924 248.683 172.324 231.283C171.291 230.316 170.258 229.349 169.224 228.383Z" fill="url(#paint0_linear_18_319)" fill-opacity="0.27"/>
<defs>
<linearGradient id="paint0_linear_18_319" x1="25.3828" y1="466.248" x2="1351.88" y2="-313.252" gradientUnits="userSpaceOnUse">
<stop offset="0.0312692" stop-color="#DAC1EF"/>
<stop offset="0.480769" stop-color="white"/>
<stop offset="1" stop-color="#7D6F89"/>
</linearGradient>
</defs>
</svg>
