<?xml version="1.0" encoding="utf-8"?>
<!-- Generator: Adobe Illustrator 25.3.1, SVG Export Plug-In . SVG Version: 6.00 Build 0)  -->
<svg version="1.1" id="Слой_1" xmlns="http://www.w3.org/2000/svg" xmlns:xlink="http://www.w3.org/1999/xlink" x="0px" y="0px"
	 viewBox="0 0 1313 593" style="enable-background:new 0 0 1313 593;" xml:space="preserve">
<style type="text/css">
	.st0{fill:#3A7CA4;}
	.st1{fill:#BFC3C9;}
	.st2{fill:#C0C3C9;}
	.st3{fill:#75A2BF;}
	.st4{fill:#BEC2C8;}
	.st5{fill:#FEFEFE;}
</style>
<g>
	<path class="st0" d="M797.4,341.9c-2.5,0.4-3.7-0.3-3.5-3.1c0.2-2.4-0.3-4.7,3.3-4.7c2.6,0,5.3-0.4,7.9-0.9
		c11.8-2,15.8-6.1,16.8-18c0.5-5.6,0.8-11.3,0.8-16.9c0.1-58.9,0-117.9,0-176.8c0-5-0.3-10-0.6-15c-0.8-14.2-5.7-19.1-19.9-20.5
		c-1.3-0.1-2.7-0.3-4-0.2c-3.6,0.2-4.4-1.4-4.4-4.8c0-4.1,2.7-3,4.7-2.9c27.8,1,55.6,1.2,83.4,0.6c9.6-0.2,19.3-0.4,28.9-0.6
		c18.6-0.8,36.6,2.2,53,11.3c15.5,8.5,26.3,21.2,28.7,39.1c2.3,17.2-2.4,32.8-14.1,46.1c-12.2,13.8-27.8,21.9-45.3,26.8
		c-2.4,0.7-5,0.5-7.4,1.2c3-0.8,6-0.2,9,0.2c16.8,2.7,33.4,6.5,47.9,16.1c14.3,9.4,25.1,21.8,28.7,39.1c5.2,25.2-4.6,52.6-27.8,67.7
		c-15.8,10.3-33.2,14.8-51.7,16.5"/>
	<path class="st0" d="M167.9,79.1c39.9-0.2,70.4,0.4,100.8-1.1c4.6-0.2,6.1,0.3,5.7,5.7c-1.9,23.9-3.3,47.8-1.5,71.8
		c0.2,2,1.9,5.4-2.7,5.4c-3.2,0-5.8,0.4-6.4-4.4c-2.1-14.5-5.3-28.7-11.5-42.2c-8-17.3-21.8-25.9-40.3-27.2c-11.6-0.8-23.3-0.8-35,0
		c-11.2,0.7-16.2,5.4-16.8,16.4c-1.7,33.6-0.4,67.3-0.8,100.9c0,2.6,1,3.5,3.5,3.4c4-0.1,8,0,12,0c19.3-0.2,30.2-7.9,37.2-25.9
		c2.5-6.4,4.5-12.9,5.4-19.6c0.7-4.9,4-4,7-3.8c3.7,0.1,2.3,3,2.2,4.9c-1.7,31.8-1.1,63.6,1,95.3c0.1,1.9,2.3,5.4-2.3,5.6
		c-3.4,0.2-6.5,0.6-6.9-4.5c-0.4-6-2.4-11.7-4.2-17.4c-5.6-17.5-15.8-25.7-34.1-27c-5.8-0.4-11.7-0.1-17.5-0.3
		c-2.7-0.1-3.4,1-3.4,3.5c0.4,31-0.9,62,0.8,92.9c0.7,13.2,5.5,18.4,18.5,20.8c5.1,0.9,10.2,1.4,15.4,1.5c3.4,0.1,5,0.6,5,4.6
		c-0.1,4.2-2.5,3.5-4.9,3.3c-32.6-1.6-65.3-0.8-97.9-0.6c-4.2,0-8.3,0.4-12.5,0.7c-2.1,0.1-4,0.4-3.9-2.8c0.1-2.6-0.2-5,3.6-5
		c3.3,0,6.6-0.7,9.9-1.2c8.6-1.5,12.3-5.5,13.9-14.1c1.1-5.9,1.1-11.9,1.1-17.9c0-62.5,0-124.9-0.1-187.4c0-3.8-0.2-7.6-0.9-11.4
		c-1.9-9.9-5-13.1-15.1-15.1c-2.4-0.5-4.9-0.8-7.4-0.9c-3.2-0.1-5.2-0.6-5.1-4.7c0.1-4.4,3-3.1,5.2-3.1
		C115.7,78.4,146.5,79.4,167.9,79.1z"/>
	<path class="st0" d="M1084.8,244.6c-0.1-14.9,1.2-30.7,6.5-45.8c10.5-29.9,31.4-47.8,62.8-53c25.8-4.3,50.5-1.9,72.8,13
		c15.6,10.4,25.5,25.3,30.4,43.1c8.6,31.2,8.9,62.6-2,93.3c-10.7,29.8-33,46.2-64.1,50.7c-19.2,2.8-38.1,1.4-56.4-5.9
		c-22.9-9.1-36.5-26.4-44-49.1C1086,276.2,1084.7,261,1084.8,244.6z"/>
	<path class="st0" d="M598.3,161.9c2.5,1.2,4.8,2.2,6.9,3.4c12.5,7,17,24.9,9.5,37c-5.5,9-18.2,13.3-30.6,10.6
		c-8.8-2-15.8-10.5-17.3-20.4c-2.2-14.7,4.6-24.7,16.2-32.7c15.6-10.8,33.3-14.6,51.8-15.6c10.7-0.6,21.3-0.1,31.8,2.3
		c25.1,5.8,38.1,22,39.4,48.8c1.8,38.8,0.4,77.6,0.8,116.4c0,3.7-0.1,7.4,0.6,10.9c1.5,8.2,7.1,10.9,14.8,7.3
		c1.8-0.8,3.5-1.9,5.1-3.1c1.8-1.4,3.3-2.9,5.1,0.2c1.4,2.4,2.2,3.8-0.7,6c-15.1,11-31.7,13.9-49.7,10.1
		c-12.1-2.6-18.9-10.4-21-22.5c-0.3-1.9-0.7-3.8-1.2-6.3c-6,8.5-12.4,16-20.9,21.5c-18.2,11.8-47.1,11.4-64.3-0.6
		c-20.9-14.5-27.1-57.4,4-76.8c13.8-8.6,29.2-13.3,44.5-18.5c9.6-3.2,19.4-6,27.9-11.7c5.2-3.5,8.5-7.9,8.7-14.3
		c0.4-12.6,1-25.4-0.8-37.9c-2.3-16-14.2-25.4-30.5-24.6c-10,0.5-20,1.3-28,8.4C599.6,160.5,599.1,161.1,598.3,161.9z"/>
	<path class="st0" d="M411.2,181.7c5.6-9.2,11.3-17.9,19.3-24.9c12.3-10.6,26.4-15.3,42.5-11.7c21.5,4.8,31.5,33.8,17.7,50.8
		c-8.5,10.5-26.1,12.8-37,4.8c-9.8-7.1-11.6-22.7-4-33.2c2.8-3.8,6.1-6.9,10.6-10.2c-11-3.2-19.6-0.1-27.1,6.3
		c-15,12.8-21.7,29.7-22,48.9c-0.4,30.1-0.1,60.3-0.1,90.4c0,3.3,0.3,6.7,0.9,9.9c2.2,11.6,8.8,17.8,21.2,19.9
		c3.4,0.6,6.9,1.2,10.4,1c3.9-0.1,4.1,1.7,4.2,4.8c0.1,3.8-2.1,3.3-4.5,3.2c-26.6-1.4-53.3-1.3-79.9-0.8c-7,0.1-14,0.5-21,0.9
		c-2.7,0.2-4-0.5-3.7-3.5c0.2-2.3-0.5-4.3,3.3-4.6c15.8-1.1,21.7-7.3,21.7-23.1c0.2-41.6,0.1-83.3,0-124.9c0-3.6-0.4-7.3-1.2-10.9
		c-2.5-11.4-8-16.4-19.9-17.5c-4.4-0.4-3.9-2.7-3.9-5.5c0-3.8,2.6-2.6,4.5-2.4c21.2,1.5,42.3,0.9,63.1-3.5c3.8-0.8,4.8-0.2,4.7,3.8
		C411.1,160.4,411.2,171,411.2,181.7z"/>
	<path class="st1" d="M640,501c1.8-6.9,5.9-20.1,8-27c0,0,0,0,3,0c5,0,5,0,5,0c2,6.8,4.5,20.2,6.7,28.6c1.7-5.2,3-9.2,4.2-13.1
		c1.3-4.1,3.2-11.3,4.1-15.5c0,0,1,0,3,0c4,0,4,0,4,0c-3,10-9,29-12,39c0,0,0,0-3.8,0c-4.2,0-4.2,0-4.2,0
		c-1.9-7.5-4.4-19.6-6.8-28.6c-2,7.9-6.3,22-8.2,28.6c0,0-1,0-7,0c0,0,0,0-0.7-2.8C632,499.3,625,477,625,477s-0.7-2.3-1-3h8"/>
	<path class="st1" d="M592.4,494.9c-3.7,0-9.4-0.1-11,0C578,495,578,495,578,495c0,4,1,10,5,12c6,2,13.1,1.4,16-3c0.8-1.2,1-3,1-3h7
		c0,0-0.3,2.8-1,4c-3.7,6.4-13.7,10.6-21.8,8.5c-8-2.1-12.9-7.7-13.2-15.5c-0.3-7.5-0.7-15,5.9-20.7c5.4-4.7,13.7-6,20.5-2.6
		c5.7,2.8,9.7,11.3,9.7,17.4c0,2.9,0,2.9,0,2.9C603.2,494.9,596.2,494.9,592.4,494.9z"/>
	<path class="st1" d="M822.4,474.5c6.6-0.5,6.6-0.5,6.6-0.5c2.5,7.7,8,20.8,11.1,29.5c3.4-9.4,8.9-21.3,11.9-29.5c0,0,0-0.2,1.4-0.1
		c4.6,0.1,4.6,0.1,4.6,0.1c-5.5,13.7-10,23-16,37c-2,11-11,16-17,17c0,0-0.1-0.1-0.1-2.8c0.1-2.2,0.1-2.2,0.1-2.2
		c5.4-1.6,11-7,10.7-12.6c-3.8-9.9-7.6-19.9-11.3-29.8C823.6,478.6,823.1,476.5,822.4,474.5z"/>
	<path class="st1" d="M540,481.2c0-6,0.1-16.2,0-22.2c0,0-0.1,0,4,0c4,0,4,0,4,0c0,13,0,29,0,44c0,6.4-7.2,10.6-13.2,10.9
		c-8.8,0.5-13.5-2.4-15.8-8.9c-0.5-1.2-1-3.5-1-8h3h4c0,4,3.9,9.2,8,9c4.4-0.2,6.9-1.6,7-6.8C540.1,493.2,540,487.2,540,481.2z"/>
	<path class="st2" d="M761.1,486c0,7.7-0.2,19.4-0.1,27c0,0-0.2,0-3.3,0c-3,0-3.7,0-3.7,0c0.1-15.3,0.1-38.7,0-54c0,0,0,0,4,0
		c3,0,3,0,3,0C760.9,466.7,761.1,478.3,761.1,486z"/>
	<path class="st1" d="M806,481c-8.2-0.4-12.8,1.4-13,9.7c-0.1,5.8-0.1,16.5,0,22.3c0,0,0,0-3.6,0c-3.7-0.1-3.4,0-3.4,0
		c0-10-0.1-29,0-39c0,0,0,0,6,0c0,0,0,0,0.4,4.1c3.8-4.9,9.6-5.2,14.6-3.1"/>
	<path class="st3" d="M693.8,548.9c-8.8,0-17.7,0-26.5,0c-1.2,0-3.1,0.6-3.1-1.4c-0.1-2.1,1.8-1.5,3-1.5c17.8,0,35.7,0,53.5,0
		c1.2,0,3.1-0.6,3.1,1.4c0.1,2.1-1.8,1.5-3,1.5C711.8,548.9,702.8,548.9,693.8,548.9z"/>
	<path class="st1" d="M413.7,489.9c2.3,0,4.7,0.1,7,0c2.8-0.2,3.3,1.2,3.3,3.6c0,2.6-1,3.5-3.5,3.4c-4.6-0.1-9.3-0.1-13.9,0
		c-2.5,0.1-3.5-0.7-3.6-3.4c0-2.9,1-3.9,3.8-3.7C409.1,490.1,411.4,489.9,413.7,489.9z"/>
	<path class="st1" d="M921.2,496.9c-2,0-4-0.1-6,0c-2.7,0.2-4.4-0.2-4.3-3.6c0.1-3.2,1.6-3.5,4.1-3.4c4.3,0.1,8.6,0.1,12.9,0
		c2.5-0.1,4,0.2,4.1,3.4c0.1,3.4-1.7,3.8-4.3,3.6C925.5,496.8,923.3,496.9,921.2,496.9z"/>
	<path class="st4" d="M452.9,496.9c-2,0-4-0.1-6,0c-2.5,0.1-4-0.3-4-3.4c0-2.9,1.2-3.7,3.9-3.6c4.3,0.1,8.6,0.1,12.9,0
		c2.6-0.1,3.5,0.9,3.5,3.4c0,2.4-0.6,3.8-3.4,3.6C457.5,496.8,455.2,496.9,452.9,496.9z"/>
	<path class="st4" d="M960.9,496.9c-2.3,0-4.6-0.1-7,0c-2.5,0.1-3.1-1.1-3.1-3.3c0-2.3,0.5-3.8,3.3-3.7c4.6,0.1,9.3,0.1,13.9,0
		c2.5-0.1,3.1,1.1,3.1,3.3c0,2.3-0.5,3.9-3.3,3.7C965.5,496.8,963.2,496.9,960.9,496.9z"/>
	<path class="st5" d="M873.9,261.5c0-16.3,0.1-32.6-0.1-48.9c0-3.4,0.9-4.5,4.4-4.5c13.1,0.2,26.3-0.5,39.3,2.4
		c21.9,4.8,34.7,18.6,38.7,40.5c3.4,18.2,2.3,36.1-4.8,53.4c-6.7,16.4-19.4,25.2-36.6,27.8c-9.3,1.4-18.5,1.8-27.8-0.1
		c-6.1-1.2-9.5-5.1-11.2-10.8c-1.7-5.6-1.9-11.4-1.9-17.3C873.9,289.8,873.9,275.7,873.9,261.5C873.9,261.5,873.9,261.5,873.9,261.5
		z"/>
	<path class="st5" d="M874,153c0-13.6,0-27.3,0-40.9c0-1.5,0-3,0.1-4.5c1.6-17.5,8.5-23.3,26.1-22c23.7,1.8,34.7,12.1,38.5,37.1
		c2.6,17.4,2,34.8-3.7,51.7c-5.3,15.9-18.2,25.7-34.8,26.9c-7.5,0.5-15,0.4-22.4,0.6c-3.1,0.1-4-0.9-3.9-4
		C874,183,873.9,168,874,153C873.9,153,873.9,153,874,153z"/>
	<path class="st5" d="M1134.6,245.8c0-19.2,0.6-38.3,5.5-56.9c3.1-11.7,7.5-22.8,17.1-30.9c10.7-9.1,24.7-8.5,34.8,1.3
		c9.9,9.7,14.4,22.1,17.1,35.4c5.2,26.2,5,52.6,3.2,79c-1,14.5-3.1,28.8-9.1,42.1c-3,6.6-6.7,12.7-12.3,17.3
		c-11.8,9.9-27.3,8.4-37.3-3.3c-10.4-12.2-14.1-26.9-16.4-42.2C1134.9,273.8,1134.5,259.8,1134.6,245.8z"/>
	<path class="st5" d="M659.7,229.3c0,5.4,0,9.4,0,13.3c0,19-0.1,38,0.1,56.9c0,3.4-0.9,6.1-2.9,8.7c-8.2,10.1-17.9,16.8-31.7,15
		c-10-1.3-17.4-7.7-20.2-17.5c-5-17.6,1.1-36.4,15.4-48c6.9-5.6,14.5-10,22-14.6C648.3,239.6,654.2,235.9,659.7,229.3z"/>
	<path class="st5" d="M579,489c0,0,0.8-4.5,2-6c4.8-6.1,13.3-5.6,16.9,0.8c2,3.6,2.1,5.2,2.1,5.2s-9.5,0-11.9,0"/>
	<path class="st5" d="M713.5,489c-1.8,0-3.7,0.1-5.5,0c-1.4-0.1-3.2,0.7-3.9-1.2c-0.5-1.5,0.3-2.9,1.1-4.2c4-6.5,14.1-6.3,18,0.3
		c1.8,3.2,0.9,5-2.7,5.1C718.2,489,715.9,488.9,713.5,489z"/>
</g>
<path class="st1" d="M717.7,494.9c-3.7,0-9.4-0.1-11,0c-3.4,0.1-3.4,0.1-3.4,0.1c0,4,1,10,5,12c6,2,13.1,1.4,16-3c0.8-1.2,1-3,1-3h7
	c0,0-0.3,2.8-1,4c-3.7,6.4-13.7,10.6-21.8,8.5c-8-2.1-12.9-7.7-13.2-15.5c-0.3-7.5-0.7-15,5.9-20.7c5.4-4.7,13.7-6,20.5-2.6
	c5.7,2.8,9.7,11.3,9.7,17.4c0,2.9,0,2.9,0,2.9C728.4,494.9,721.5,494.9,717.7,494.9z"/>
<path class="st5" d="M704.2,489c0,0,0.8-4.5,2-6c4.8-6.1,13.3-5.6,16.9,0.8c2,3.6,2.1,5.2,2.1,5.2s-9.5,0-11.9,0"/>
</svg>
