<?xml version="1.0" encoding="utf-8"?>
<!-- Generator: Adobe Illustrator 25.3.1, SVG Export Plug-In . SVG Version: 6.00 Build 0)  -->
<svg version="1.1" id="Слой_1" xmlns="http://www.w3.org/2000/svg" xmlns:xlink="http://www.w3.org/1999/xlink" x="0px" y="0px"
	 viewBox="0 0 1313 593" style="enable-background:new 0 0 1313 593;" xml:space="preserve">
<style type="text/css">
	.st0{fill:#3A7CA4;}
	.st1{fill:#BFC3C9;}
	.st2{fill:#C0C3C9;}
	.st3{fill:#75A2BF;}
	.st4{fill:#BEC2C8;}
</style>
<g>
	<path class="st0" d="M167.9,79.1c39.9-0.2,70.4,0.4,100.8-1.1c4.6-0.2,6.1,0.3,5.7,5.7c-1.9,23.9-3.3,47.8-1.5,71.8
		c0.2,2,1.9,5.4-2.7,5.4c-3.2,0-5.8,0.4-6.4-4.4c-2.1-14.5-5.3-28.7-11.5-42.2c-8-17.3-21.8-25.9-40.3-27.2c-11.6-0.8-23.3-0.8-35,0
		c-11.2,0.7-16.2,5.4-16.8,16.4c-1.7,33.6-0.4,67.3-0.8,100.9c0,2.6,1,3.5,3.5,3.4c4-0.1,8,0,12,0c19.3-0.2,30.2-7.9,37.2-25.9
		c2.5-6.4,4.5-12.9,5.4-19.6c0.7-4.9,4-4,7-3.8c3.7,0.1,2.3,3,2.2,4.9c-1.7,31.8-1.1,63.6,1,95.3c0.1,1.9,2.3,5.4-2.3,5.6
		c-3.4,0.2-6.5,0.6-6.9-4.5c-0.4-6-2.4-11.7-4.2-17.4c-5.6-17.5-15.8-25.7-34.1-27c-5.8-0.4-11.7-0.1-17.5-0.3
		c-2.7-0.1-3.4,1-3.4,3.5c0.4,31-0.9,62,0.8,92.9c0.7,13.2,5.5,18.4,18.5,20.8c5.1,0.9,10.2,1.4,15.4,1.5c3.4,0.1,5,0.6,5,4.6
		c-0.1,4.2-2.5,3.5-4.9,3.3c-32.6-1.6-65.3-0.8-97.9-0.6c-4.2,0-8.3,0.4-12.5,0.7c-2.1,0.1-4,0.4-3.9-2.8c0.1-2.6-0.2-5,3.6-5
		c3.3,0,6.6-0.7,9.9-1.2c8.6-1.5,12.3-5.5,13.9-14.1c1.1-5.9,1.1-11.9,1.1-17.9c0-62.5,0-124.9-0.1-187.4c0-3.8-0.2-7.6-0.9-11.4
		c-1.9-9.9-5-13.1-15.1-15.1c-2.4-0.5-4.9-0.8-7.4-0.9c-3.2-0.1-5.2-0.6-5.1-4.7c0.1-4.4,3-3.1,5.2-3.1
		C115.7,78.4,146.5,79.4,167.9,79.1z"/>
	<path class="st0" d="M411.2,181.7c5.6-9.2,11.3-17.9,19.3-24.9c12.3-10.6,26.4-15.3,42.5-11.7c21.5,4.8,31.5,33.8,17.7,50.8
		c-8.5,10.5-26.1,12.8-37,4.8c-9.8-7.1-11.6-22.7-4-33.2c2.8-3.8,6.1-6.9,10.6-10.2c-11-3.2-19.6-0.1-27.1,6.3
		c-15,12.8-21.7,29.7-22,48.9c-0.4,30.1-0.1,60.3-0.1,90.4c0,3.3,0.3,6.7,0.9,9.9c2.2,11.6,8.8,17.8,21.2,19.9
		c3.4,0.6,6.9,1.2,10.4,1c3.9-0.1,4.1,1.7,4.2,4.8c0.1,3.8-2.1,3.3-4.5,3.2c-26.6-1.4-53.3-1.3-79.9-0.8c-7,0.1-14,0.5-21,0.9
		c-2.7,0.2-4-0.5-3.7-3.5c0.2-2.3-0.5-4.3,3.3-4.6c15.8-1.1,21.7-7.3,21.7-23.1c0.2-41.6,0.1-83.3,0-124.9c0-3.6-0.4-7.3-1.2-10.9
		c-2.5-11.4-8-16.4-19.9-17.5c-4.4-0.4-3.9-2.7-3.9-5.5c0-3.8,2.6-2.6,4.5-2.4c21.2,1.5,42.3,0.9,63.1-3.5c3.8-0.8,4.8-0.2,4.7,3.8
		C411.1,160.4,411.2,171,411.2,181.7z"/>
	<path class="st1" d="M640,501c1.8-6.9,5.9-20.1,8-27c0,0,0,0,3,0c5,0,5,0,5,0c2,6.8,4.5,20.2,6.7,28.6c1.7-5.2,3-9.2,4.2-13.1
		c1.3-4.1,3.2-11.3,4.1-15.5c0,0,1,0,3,0c4,0,4,0,4,0c-3,10-9,29-12,39c0,0,0,0-3.8,0c-4.2,0-4.2,0-4.2,0
		c-1.9-7.5-4.4-19.6-6.8-28.6c-2,7.9-6.3,22-8.2,28.6c0,0-1,0-7,0c0,0,0,0-0.7-2.8C632,499.3,625,477,625,477s-0.7-2.3-1-3h8"/>
	<path class="st1" d="M822.4,474.5c6.6-0.5,6.6-0.5,6.6-0.5c2.5,7.7,8,20.8,11.1,29.5c3.4-9.4,8.9-21.3,11.9-29.5c0,0,0-0.2,1.4-0.1
		c4.6,0.1,4.6,0.1,4.6,0.1c-5.5,13.7-10,23-16,37c-2,11-11,16-17,17c0,0-0.1-0.1-0.1-2.8c0.1-2.2,0.1-2.2,0.1-2.2
		c5.4-1.6,11-7,10.7-12.6c-3.8-9.9-7.6-19.9-11.3-29.8C823.6,478.6,823.1,476.5,822.4,474.5z"/>
	<path class="st1" d="M540,481.2c0-6,0.1-16.2,0-22.2c0,0-0.1,0,4,0c4,0,4,0,4,0c0,13,0,29,0,44c0,6.4-7.2,10.6-13.2,10.9
		c-8.8,0.5-13.5-2.4-15.8-8.9c-0.5-1.2-1-3.5-1-8h3h4c0,4,3.9,9.2,8,9c4.4-0.2,6.9-1.6,7-6.8C540.1,493.2,540,487.2,540,481.2z"/>
	<path class="st2" d="M761.1,486c0,7.7-0.2,19.4-0.1,27c0,0-0.2,0-3.3,0c-3,0-3.7,0-3.7,0c0.1-15.3,0.1-38.7,0-54c0,0,0,0,4,0
		c3,0,3,0,3,0C760.9,466.7,761.1,478.3,761.1,486z"/>
	<path class="st1" d="M806,481c-8.2-0.4-12.8,1.4-13,9.7c-0.1,5.8-0.1,16.5,0,22.3c0,0,0,0-3.6,0c-3.7-0.1-3.4,0-3.4,0
		c0-10-0.1-29,0-39c0,0,0,0,6,0c0,0,0,0,0.4,4.1c3.8-4.9,9.6-5.2,14.6-3.1"/>
	<path class="st3" d="M693.8,548.9c-8.8,0-17.7,0-26.5,0c-1.2,0-3.1,0.6-3.1-1.4c-0.1-2.1,1.8-1.5,3-1.5c17.8,0,35.7,0,53.5,0
		c1.2,0,3.1-0.6,3.1,1.4c0.1,2.1-1.8,1.5-3,1.5C711.8,548.9,702.8,548.9,693.8,548.9z"/>
	<path class="st1" d="M413.7,489.9c2.3,0,4.7,0.1,7,0c2.8-0.2,3.3,1.2,3.3,3.6c0,2.6-1,3.5-3.5,3.4c-4.6-0.1-9.3-0.1-13.9,0
		c-2.5,0.1-3.5-0.7-3.6-3.4c0-2.9,1-3.9,3.8-3.7C409.1,490.1,411.4,489.9,413.7,489.9z"/>
	<path class="st1" d="M921.2,496.9c-2,0-4-0.1-6,0c-2.7,0.2-4.4-0.2-4.3-3.6c0.1-3.2,1.6-3.5,4.1-3.4c4.3,0.1,8.6,0.1,12.9,0
		c2.5-0.1,4,0.2,4.1,3.4c0.1,3.4-1.7,3.8-4.3,3.6C925.5,496.8,923.3,496.9,921.2,496.9z"/>
	<path class="st4" d="M452.9,496.9c-2,0-4-0.1-6,0c-2.5,0.1-4-0.3-4-3.4c0-2.9,1.2-3.7,3.9-3.6c4.3,0.1,8.6,0.1,12.9,0
		c2.6-0.1,3.5,0.9,3.5,3.4c0,2.4-0.6,3.8-3.4,3.6C457.5,496.8,455.2,496.9,452.9,496.9z"/>
	<path class="st4" d="M960.9,496.9c-2.3,0-4.6-0.1-7,0c-2.5,0.1-3.1-1.1-3.1-3.3c0-2.3,0.5-3.8,3.3-3.7c4.6,0.1,9.3,0.1,13.9,0
		c2.5-0.1,3.1,1.1,3.1,3.3c0,2.3-0.5,3.9-3.3,3.7C965.5,496.8,963.2,496.9,960.9,496.9z"/>
	<path class="st0" d="M1011.3,258c-3.6-17.3-14.4-29.7-28.7-39.1c-14.5-9.6-31.1-13.4-47.9-16.1c-3-0.4-6-1-9-0.2
		c2.4-0.7,5-0.5,7.4-1.2c17.5-4.9,33.1-13,45.3-26.8c11.7-13.3,16.4-28.9,14.1-46.1c-2.4-17.9-13.2-30.6-28.7-39.1
		c-16.4-9.1-34.4-12.1-53-11.3c-9.6,0.2-19.3,0.4-28.9,0.6c-27.8,0.6-55.6,0.4-83.4-0.6c-2-0.1-4.7-1.2-4.7,2.9c0,3.4,0.8,5,4.4,4.8
		c1.3-0.1,2.7,0.1,4,0.2c14.2,1.4,19.1,6.3,19.9,20.5c0.3,5,0.6,10,0.6,15c0,58.9,0.1,117.9,0,176.8c0,5.6-0.3,11.3-0.8,16.9
		c-1,11.9-5,16-16.8,18c-2.6,0.5-5.3,0.9-7.9,0.9c-3.6,0-3.1,2.3-3.3,4.7c-0.2,2.8,1,3.5,3.5,3.1l134.4,0.3
		c18.5-1.7,35.9-6.2,51.7-16.5C1006.7,310.6,1016.5,283.2,1011.3,258z M874,153c0-13.6,0-27.3,0-40.9c0-1.5,0-3,0.1-4.5
		c1.6-17.5,8.5-23.3,26.1-22c23.7,1.8,34.7,12.1,38.5,37.1c2.6,17.4,2,34.8-3.7,51.7c-5.3,15.9-18.2,25.7-34.8,26.9
		c-7.5,0.5-15,0.4-22.4,0.6c-3.1,0.1-4-0.9-3.9-4C874,183,873.9,168,874,153z M951.4,304.4c-6.7,16.4-19.4,25.2-36.6,27.8
		c-9.3,1.4-18.5,1.8-27.8-0.1c-6.1-1.2-9.5-5.1-11.2-10.8c-1.7-5.6-1.9-11.4-1.9-17.3c0-14.2,0-28.3,0-42.5
		c0-16.3,0.1-32.6-0.1-48.9c0-3.4,0.9-4.5,4.4-4.5c13.1,0.2,26.3-0.5,39.3,2.4c21.9,4.8,34.7,18.6,38.7,40.5
		C959.6,269.2,958.5,287.1,951.4,304.4z"/>
	<path class="st0" d="M1257.3,201.9c-4.9-17.8-14.8-32.7-30.4-43.1c-22.3-14.9-47-17.3-72.8-13c-31.4,5.2-52.3,23.1-62.8,53
		c-5.3,15.1-6.6,30.9-6.5,45.8c-0.1,16.4,1.2,31.6,6,46.3c7.5,22.7,21.1,40,44,49.1c18.3,7.3,37.2,8.7,56.4,5.9
		c31.1-4.5,53.4-20.9,64.1-50.7C1266.2,264.5,1265.9,233.1,1257.3,201.9z M1212.3,273.7c-1,14.5-3.1,28.8-9.1,42.1
		c-3,6.6-6.7,12.7-12.3,17.3c-11.8,9.9-27.3,8.4-37.3-3.3c-10.4-12.2-14.1-26.9-16.4-42.2c-2.3-13.8-2.7-27.8-2.6-41.8
		c0-19.2,0.6-38.3,5.5-56.9c3.1-11.7,7.5-22.8,17.1-30.9c10.7-9.1,24.7-8.5,34.8,1.3c9.9,9.7,14.4,22.1,17.1,35.4
		C1214.3,220.9,1214.1,247.3,1212.3,273.7z"/>
	<path class="st0" d="M732.4,327c-1.8-3.1-3.3-1.6-5.1-0.2c-1.6,1.2-3.3,2.3-5.1,3.1c-7.7,3.6-13.3,0.9-14.8-7.3
		c-0.7-3.5-0.6-7.2-0.6-10.9c-0.4-38.8,1-77.6-0.8-116.4c-1.3-26.8-14.3-43-39.4-48.8c-10.5-2.4-21.1-2.9-31.8-2.3
		c-18.5,1-36.2,4.8-51.8,15.6c-11.6,8-18.4,18-16.2,32.7c1.5,9.9,8.5,18.4,17.3,20.4c12.4,2.7,25.1-1.6,30.6-10.6
		c7.5-12.1,3-30-9.5-37c-2.1-1.2-4.4-2.2-6.9-3.4c0.8-0.8,1.3-1.4,2.1-2.1c8-7.1,18-7.9,28-8.4c16.3-0.8,28.2,8.6,30.5,24.6
		c1.8,12.5,1.2,25.3,0.8,37.9c-0.2,6.4-3.5,10.8-8.7,14.3c-8.5,5.7-18.3,8.5-27.9,11.7c-15.3,5.2-30.7,9.9-44.5,18.5
		c-31.1,19.4-24.9,62.3-4,76.8c17.2,12,46.1,12.4,64.3,0.6c8.5-5.5,14.9-13,20.9-21.5c0.5,2.5,0.9,4.4,1.2,6.3
		c2.1,12.1,8.9,19.9,21,22.5c18,3.8,34.6,0.9,49.7-10.1C734.6,330.8,733.8,329.4,732.4,327z M657.2,308.2
		c-8.2,10.1-17.9,16.8-31.7,15c-10-1.3-17.4-7.7-20.2-17.5c-5-17.6,1.1-36.4,15.4-48c6.9-5.6,14.5-10,22-14.6
		c5.9-3.5,11.8-7.2,17.3-13.8c0,5.4,0,9.4,0,13.3c0,19-0.1,38,0.1,56.9C660.1,302.9,659.2,305.6,657.2,308.2z"/>
	<path class="st1" d="M592.4,494.9c3.8,0,10.8,0,14.7,0.1c0,0,0,0,0-2.9c0-6.1-3-18.9-18.2-19c0,0-6.6-0.5-12,4.2
		c-5.5,4.1-6,9.8-6.2,17.3c0.3,7.8,5,19.4,18.3,19.4c10.5,0,14.8-4.1,16.3-7.6c0.7-1,1.7-5.3,1.7-5.3h-7c0,0-0.6,1.7-1.4,2.9
		c-1.7,1.9-3.3,3.2-9.7,3.3c-6.4,0-11.2-6.3-11-12.2c0,0,0,0,3.4-0.1C583,494.8,588.7,494.9,592.4,494.9z M581,483
		c4.8-6.1,13.3-5.6,16.9,0.8c2,3.6,2.1,5.2,2.1,5.2s-9.5,0-11.9,0H579C579,489,579.8,484.5,581,483z"/>
</g>
<path class="st1" d="M718.2,494.9c3.8,0,10.8,0,14.7,0.1c0,0,0,0,0-2.9c0-6.1-3-18.9-18.2-19c0,0-6.6-0.5-12,4.2
	c-5.5,4.1-6,9.8-6.2,17.3c0.3,7.8,5,19.4,18.3,19.4c10.5,0,14.8-4.1,16.3-7.6c0.7-1,1.7-5.3,1.7-5.3h-7c0,0-0.6,1.7-1.4,2.9
	c-1.7,1.9-3.3,3.2-9.7,3.3c-6.4,0-11.2-6.3-11-12.2c0,0,0,0,3.4-0.1C708.8,494.8,714.5,494.9,718.2,494.9z M706.8,483
	c4.8-6.1,13.3-5.6,16.9,0.8c2,3.6,2.1,5.2,2.1,5.2s-9.5,0-11.9,0h-9.1C704.8,489,705.6,484.5,706.8,483z"/>
</svg>
