<?xml version="1.0" encoding="utf-8"?>
<!-- Generator: Adobe Illustrator 25.3.1, SVG Export Plug-In . SVG Version: 6.00 Build 0)  -->
<svg version="1.1" id="Слой_1" xmlns="http://www.w3.org/2000/svg" xmlns:xlink="http://www.w3.org/1999/xlink" x="0px" y="0px"
	 viewBox="0 0 265.3 256.3" style="enable-background:new 0 0 265.3 256.3;" xml:space="preserve">
<style type="text/css">
	.st0{fill:#FCFCFC;}
	.st1{fill:#303531;}
</style>
<g>
	<g>
		<path class="st0" d="M137,32c5.7,0,11.4,0.1,17.2,0c3.2-0.1,6.2,1.1,9.2,1.8c10.3,2.6,20.5,5.3,30.7,7.9c1.1,0.3,1.7,1,2.4,1.8
			c7.5,9,15,18.1,22.5,27.1c3.9,4.7,7.8,9.4,11.8,14.1c0.4,0.5,0.3,0.6,0,1.1c-15.9,18.2-31.7,36.4-47.6,54.7
			c-15,17.2-29.9,34.4-44.9,51.6c-1.2,1.4-1.2,1.4-2.4,0c-21.2-24.4-42.4-48.8-63.6-73.1c-9.6-11-19.1-22-28.7-32.9
			c-0.6-0.6-0.5-0.9,0-1.5C55.4,70.5,67,56.5,78.5,42.6c0.5-0.6,1.2-0.8,1.9-1c10.5-2.7,21.1-5.3,31.5-8.2c3.9-1.1,7.7-1.5,11.7-1.4
			C128.1,32.1,132.5,32,137,32z M143.5,180.1c0.2-0.2,0.4-0.4,0.6-0.6c11.8-13.5,23.5-27,35.3-40.6c14.2-16.3,28.4-32.6,42.6-49
			c0.3-0.3,0.6-0.7,1-1.2c-0.6,0-1,0-1.3,0c-15.4,0-30.9,0-46.3,0c-1,0-1.3,0.3-1.6,1.2c-6.1,18.1-12.2,36.1-18.3,54.2
			c-4,11.9-8,23.8-12.1,35.7c-0.1,0.1-0.1,0.3,0,0.4C143.3,180.4,143.4,180.2,143.5,180.1z M136.8,186.1c0.1,0,0.2,0,0.3,0
			c0.1-0.2,0.1-0.4,0.2-0.6c10.8-31.9,21.6-63.8,32.4-95.7c0.4-1.2-0.2-1-0.9-1c-21.2,0-42.5,0-63.7,0c-0.3,0-0.7-0.1-1.1,0.2
			C114.9,121.4,125.8,153.8,136.8,186.1z M51.4,88.9c26.3,30.3,52.5,60.4,78.8,90.6c0.1-0.8-0.1-1.3-0.3-1.8
			c-9.9-29.2-19.8-58.5-29.7-87.7c-0.3-0.9-0.7-1.1-1.6-1.1c-15.3,0-30.6,0-45.9,0C52.3,88.9,52,88.9,51.4,88.9z M169.6,85
			c-0.1-0.3-0.2-0.4-0.2-0.6c-4.3-9.3-8.6-18.6-12.8-28c-0.3-0.7-0.8-0.7-1.4-0.7c-12.1,0-24.2,0-36.2,0c-0.8,0-1.2,0.2-1.5,1
			c-4.1,9.1-8.3,18.2-12.5,27.3c-0.1,0.3-0.4,0.6-0.3,1C126.2,85,147.8,85,169.6,85z M226,85.1c-0.2-0.3-0.4-0.5-0.5-0.6
			c-10.5-12.6-20.9-25.1-31.4-37.7c-0.5-0.6-1-0.7-1.6-0.5c-4.9,1.3-9.8,2.5-14.7,3.8c-5.9,1.5-11.9,3.1-17.8,4.6
			c0,0.1,0,0.2,0.1,0.3c4.5,9.8,9,19.7,13.5,29.5c0.3,0.6,0.7,0.6,1.2,0.6c4.5,0,9,0,13.6,0C200.8,85.1,213.3,85.1,226,85.1z
			 M48.2,85.1c10.5,0,20.8,0,31,0c6.7,0,13.4,0,20,0c0.5,0,0.9,0,1.2-0.6c4.4-9.6,8.8-19.1,13.2-28.7c0.4-0.9,0.1-1.2-0.7-1.4
			c-10.3-2.6-20.6-5.3-30.9-8c-1-0.3-1.6-0.1-2.2,0.7C72,56.5,64.1,66,56.3,75.4C53.6,78.5,51,81.7,48.2,85.1z M87.8,43.6
			c0,0.1,0,0.2,0,0.2c0.1,0.1,0.3,0.1,0.4,0.1c8.7,2.2,17.4,4.5,26.1,6.7c1.8,0.5,3.6,1.2,5.5,1.2c11.5,0,23,0,34.5,0
			c0.6,0,1.1-0.1,1.6-0.2c8-2.1,16-4.1,24-6.2c2.1-0.6,4.3-1.1,6.4-1.7c-0.2-0.4-0.4-0.3-0.6-0.4c-8-2.1-16.1-4.2-24.1-6.2
			c-2.1-0.5-4.2-1.4-6.4-1.4c-12.1,0-24.3,0-36.5,0c-0.6,0-1.1,0.1-1.6,0.2c-5.8,1.5-11.5,3-17.3,4.4C95.9,41.5,91.8,42.6,87.8,43.6
			z M130.3,179.4C130.3,179.4,130.2,179.5,130.3,179.4c0,0.2,0.1,0.2,0.1,0.1C130.4,179.5,130.4,179.4,130.3,179.4
			C130.3,179.4,130.3,179.4,130.3,179.4z"/>
		<path class="st1" d="M130.3,179.4C130.3,179.4,130.3,179.4,130.3,179.4c0.1,0,0.1,0.1,0.1,0.1
			C130.3,179.6,130.3,179.6,130.3,179.4C130.2,179.5,130.3,179.4,130.3,179.4z"/>
		<path class="st1" d="M143.5,180.1c-0.1,0.1-0.2,0.2-0.2,0.2c-0.2-0.1-0.1-0.3,0-0.4C143.3,180,143.4,180.1,143.5,180.1z"/>
		<path class="st0" d="M203.8,101.5c-6.3,1.2-12.7,1.2-19.3,0.1C186.9,100,200.2,99.9,203.8,101.5z"/>
		<path class="st0" d="M181.6,106.9c5.8-1.3,11.6-1.3,17.4,0C193.2,108.3,187.4,108.2,181.6,106.9z"/>
		<path class="st0" d="M194.7,112.4c-5.6,1.4-11.1,1.4-16.7,0C183.6,111,189.1,111.1,194.7,112.4z"/>
		<path class="st0" d="M189.9,117.9c-3.9,1.4-10.7,1.4-14.5,0C180.2,116.5,185,116.6,189.9,117.9z"/>
		<path class="st0" d="M173.4,123.4c4.2-1.3,8.1-1.3,12.3,0C181.5,124.8,177.6,124.8,173.4,123.4z"/>
		<path class="st0" d="M170.5,129c3.3-1.3,7.2-1.3,10.1,0C177.2,130.3,173.9,130.3,170.5,129z"/>
		<path class="st0" d="M70.5,101.2c6.3-1.2,12.7-1.2,19.3-0.1C87.4,102.8,74.2,102.8,70.5,101.2z"/>
		<path class="st0" d="M92.7,106.8c-3.8,1.4-13.6,1.4-17.4,0C81.1,105.5,86.9,105.6,92.7,106.8z"/>
		<path class="st0" d="M96.3,112.5c-5.6,1.3-11.1,1.2-16.9,0.1C81.9,111,91.8,110.9,96.3,112.5z"/>
		<path class="st0" d="M98.9,117.9c-4.9,1.4-9.7,1.4-14.5,0C89.2,116.5,94.1,116.6,98.9,117.9z"/>
		<path class="st0" d="M89,123.5c3.9-1.3,7.8-1.3,12,0C96.8,124.8,92.9,124.8,89,123.5z"/>
		<path class="st0" d="M93.6,129c3.9-1.4,6.9-1.2,10.3,0C100.4,130.3,97.1,130.3,93.6,129z"/>
		<path class="st0" d="M169.2,57.5c1.9,0.2,3.5,0.7,5.1,1.5c10.4,5.2,20.9,10.3,31.3,15.4c1.5,0.8,2.9,1.8,3.9,3.4
			c-1.9-0.6-3.6-0.9-5.3-1.8c-10.6-5.3-21.2-10.5-31.9-15.7C171.2,59.7,170.2,58.7,169.2,57.5z"/>
		<path class="st0" d="M197,79c-2-0.1-3.6-0.7-5.3-1.5c-5.5-2.8-11-5.4-16.5-8.1c-1.3-0.6-2.3-1.7-3.3-2.9c1.9,0.2,3.4,0.6,5,1.4
			c5.4,2.8,10.9,5.4,16.4,8.1C194.7,76.6,195.9,77.6,197,79z"/>
		<path class="st0" d="M176.7,53.7c1.9,0.2,3.5,0.6,5.1,1.4c5.4,2.7,10.8,5.3,16.2,8c1.5,0.7,2.8,1.7,3.7,3.1
			c-1.8-0.2-3.4-0.6-5-1.4c-5.5-2.8-11.1-5.5-16.7-8.2C178.7,56,177.6,55,176.7,53.7z"/>
		<path class="st0" d="M63.6,77.7c1-1.5,2.3-2.5,3.8-3.3c10.4-5.1,20.9-10.2,31.3-15.4c1.6-0.8,3.3-1.3,5.2-1.5
			c-0.9,1.2-1.8,2.2-3.1,2.8c-6.1,3-12.2,6-18.3,9.1c-4.4,2.2-9,4.3-13.4,6.6C67.3,76.8,65.6,77.3,63.6,77.7z"/>
		<path class="st0" d="M96.5,53.7c-1.1,1.4-2.2,2.4-3.7,3.1c-5.9,2.9-11.8,5.8-17.7,8.7c-1.1,0.6-2.4,0.5-3.8,0.8
			c1-1.5,2.3-2.5,3.8-3.2c5.4-2.6,10.8-5.2,16.2-8C92.9,54.3,94.5,53.9,96.5,53.7z"/>
		<path class="st0" d="M101.3,66.4c-1.1,1.3-2.2,2.4-3.6,3c-5.9,2.9-11.9,5.8-17.8,8.8c-1.1,0.6-2.4,0.5-3.8,0.9
			c1.1-1.6,2.3-2.5,3.8-3.2c5.4-2.6,10.8-5.2,16.1-7.9C97.6,67.1,99.3,66.6,101.3,66.4z"/>
	</g>
</g>
</svg>
