<?xml version="1.0" encoding="utf-8"?>
<!-- Generator: Adobe Illustrator 25.3.1, SVG Export Plug-In . SVG Version: 6.00 Build 0)  -->
<svg version="1.1" id="Слой_1" xmlns="http://www.w3.org/2000/svg" xmlns:xlink="http://www.w3.org/1999/xlink" x="0px" y="0px"
	 viewBox="0 0 453.6 453.6" style="enable-background:new 0 0 453.6 453.6;" xml:space="preserve">
<style type="text/css">
	.st0{fill:#FCFCFC;}
	.st1{fill:#303531;}
</style>
<g>
	<g>
		<path class="st0" d="M227.4,101.3c5.7,0,11.4,0.1,17.2,0c3.2-0.1,6.2,1.1,9.2,1.8c10.3,2.6,20.5,5.3,30.7,7.9
			c1.1,0.3,1.7,1,2.4,1.8c7.5,9,15,18.1,22.5,27.1c3.9,4.7,7.8,9.4,11.8,14.1c0.4,0.5,0.3,0.6,0,1.1c-15.9,18.2-31.7,36.4-47.6,54.7
			c-15,17.2-29.9,34.4-44.9,51.6c-1.2,1.4-1.2,1.4-2.4,0c-21.2-24.4-42.4-48.8-63.6-73.1c-9.6-11-19.1-22-28.7-32.9
			c-0.6-0.6-0.5-0.9,0-1.5c11.6-13.9,23.2-27.9,34.8-41.9c0.5-0.6,1.2-0.8,1.9-1c10.5-2.7,21.1-5.3,31.5-8.2
			c3.9-1.1,7.7-1.5,11.7-1.4C218.4,101.3,222.9,101.3,227.4,101.3z M233.8,249.4c0.2-0.2,0.4-0.4,0.6-0.6
			c11.8-13.5,23.5-27,35.3-40.6c14.2-16.3,28.4-32.6,42.6-49c0.3-0.3,0.6-0.7,1-1.2c-0.6,0-1,0-1.3,0c-15.4,0-30.9,0-46.3,0
			c-1,0-1.3,0.3-1.6,1.2c-6.1,18.1-12.2,36.1-18.3,54.2c-4,11.9-8,23.8-12.1,35.7c-0.1,0.1-0.1,0.3,0,0.4
			C233.6,249.6,233.8,249.5,233.8,249.4z M227.1,255.4c0.1,0,0.2,0,0.3,0c0.1-0.2,0.1-0.4,0.2-0.6c10.8-31.9,21.6-63.8,32.4-95.7
			c0.4-1.2-0.2-1-0.9-1c-21.2,0-42.5,0-63.7,0c-0.3,0-0.7-0.1-1.1,0.2C205.2,190.7,216.2,223.1,227.1,255.4z M141.8,158.2
			c26.3,30.3,52.5,60.4,78.8,90.6c0.1-0.8-0.1-1.3-0.3-1.8c-9.9-29.2-19.8-58.5-29.7-87.7c-0.3-0.9-0.7-1.1-1.6-1.1
			c-15.3,0-30.6,0-45.9,0C142.7,158.2,142.4,158.2,141.8,158.2z M260,154.3c-0.1-0.3-0.2-0.4-0.2-0.6c-4.3-9.3-8.6-18.6-12.8-28
			c-0.3-0.7-0.8-0.7-1.4-0.7c-12.1,0-24.2,0-36.2,0c-0.8,0-1.2,0.2-1.5,1c-4.1,9.1-8.3,18.2-12.5,27.3c-0.1,0.3-0.4,0.6-0.3,1
			C216.6,154.3,238.2,154.3,260,154.3z M316.4,154.3c-0.2-0.3-0.4-0.5-0.5-0.6c-10.5-12.6-20.9-25.1-31.4-37.7
			c-0.5-0.6-1-0.7-1.6-0.5c-4.9,1.3-9.8,2.5-14.7,3.8c-5.9,1.5-11.9,3.1-17.8,4.6c0,0.1,0,0.2,0.1,0.3c4.5,9.8,9,19.7,13.5,29.5
			c0.3,0.6,0.7,0.6,1.2,0.6c4.5,0,9,0,13.6,0C291.2,154.3,303.7,154.3,316.4,154.3z M138.6,154.3c10.5,0,20.8,0,31,0
			c6.7,0,13.4,0,20,0c0.5,0,0.9,0,1.2-0.6c4.4-9.6,8.8-19.1,13.2-28.7c0.4-0.9,0.1-1.2-0.7-1.4c-10.3-2.6-20.6-5.3-30.9-8
			c-1-0.3-1.6-0.1-2.2,0.7c-7.8,9.5-15.7,18.9-23.5,28.3C144,147.8,141.4,151,138.6,154.3z M178.1,112.9c0,0.1,0,0.2,0,0.2
			c0.1,0.1,0.3,0.1,0.4,0.1c8.7,2.2,17.4,4.5,26.1,6.7c1.8,0.5,3.6,1.2,5.5,1.2c11.5,0,23,0,34.5,0c0.6,0,1.1-0.1,1.6-0.2
			c8-2.1,16-4.1,24-6.2c2.1-0.6,4.3-1.1,6.4-1.7c-0.2-0.4-0.4-0.3-0.6-0.4c-8-2.1-16.1-4.2-24.1-6.2c-2.1-0.5-4.2-1.4-6.4-1.4
			c-12.1,0-24.3,0-36.5,0c-0.6,0-1.1,0.1-1.6,0.2c-5.8,1.5-11.5,3-17.3,4.4C186.2,110.8,182.2,111.9,178.1,112.9z M220.6,248.7
			C220.6,248.7,220.6,248.7,220.6,248.7c0,0.2,0.1,0.2,0.1,0.1C220.8,248.8,220.7,248.7,220.6,248.7
			C220.7,248.7,220.7,248.7,220.6,248.7z"/>
		<path class="st0" d="M174.1,308.1c1.8-5.2,3.4-10.2,5.1-15.3c0.9-2.5,1.7-5.1,2.5-7.6s-0.8-5.1-3.5-5.3c-0.2,0-0.4,0-0.6,0
			c-2.1,0-2.4-0.5-2.1-2.7c0.1-0.5,0.3-0.5,0.6-0.5c5.3,0,10.6,0,15.8,0c0.4,0,0.6,0.1,0.6,0.5c0,0,0,0.1,0,0.1
			c0.2,2.5,0.2,2.5-2.3,2.5c-3.6,0-4,0.6-2.9,4.1c2.4,8,4.9,16,7.3,24c0.4-0.1,0.4-0.5,0.4-0.7c2.2-7.6,4.5-15.2,6.8-22.8
			c0.3-0.9,0.4-1.8,0.5-2.7c0-0.9-0.4-1.5-1.3-1.7c-1.1-0.2-2.2-0.1-3.4-0.1c-0.7,0-1-0.1-1-0.9c0-2.2,0-2.2,2.2-2.2
			c3.8,0,7.6,0,11.4,0c0.9,0,1.3,0.1,1.2,1.1c-0.1,1.9,0,1.9-1.9,2c-1.5,0.1-2.5,0.8-3.1,2.2c-1.2,2.9-1.9,5.9-2.9,8.9
			c-2.4,7.9-4.8,15.7-7.1,23.6c-0.2,0.8-0.5,1.1-1.4,1.1c-1.1-0.1-2.6,0.4-3.4-0.2c-0.8-0.5-0.8-2.1-1.2-3.2
			c-2.1-6.8-4.3-13.6-6.4-20.4c-0.1-0.4-0.1-0.9-0.6-1.3c-1,3-2,6-3,8.9c-1.7,5-3.4,10-5.1,15.1c-0.3,0.8-0.7,1.1-1.5,1
			c-1.1-0.1-2.6,0.5-3.4-0.2c-0.7-0.6-0.7-2-1.1-3.1c-2.6-9-5.1-18-7.7-26.9c-0.4-1.3-0.8-2.5-1.6-3.6c-0.9-1.3-2-2.1-3.6-1.9
			c-0.9,0.1-1.2-0.2-1.1-1.1c0.1-2,0-2,2.1-2c4.4,0,8.9,0,13.3,0c0.9,0,1.2,0.1,1.2,1.1c-0.1,2.1,0,2.1-2.1,2.1
			c-3.2,0-3.8,0.7-3,3.8c2.2,7.9,4.4,15.8,6.6,23.8C173.9,307.6,174,307.7,174.1,308.1z"/>
		<path class="st0" d="M323,295.3c0.5,0.2,0.6,0.3,0.8,0.4c4.5,1.5,6.5,4.1,6.6,8.9c0.1,1.6,0.1,3.3,0.2,4.9c0,0.7,0.2,1.4,0.5,2.1
			c0.3,0.7,0.7,1.2,1.5,1.2c0.8,0,1.2-0.6,1.4-1.3c0.4-1.4,0.5-2.9,0.5-4.4c0-1,0.3-1.4,1.4-1.3c1.6,0.1,1.6,0,1.5,1.6
			c-0.1,1.8-0.2,3.6-0.8,5.3c-1.1,3-3.4,4.3-6.9,3.9c-2.8-0.3-4.5-2.1-4.9-5.1c-0.2-2.2-0.3-4.5-0.4-6.7c-0.4-5.5-2.8-7.8-8.3-8
			c-2.5-0.1-5,0-7.4,0c-0.5,0-0.8,0-0.8,0.7c0.1,4.1-0.1,8.2,0.1,12.4c0.1,1.9,0.6,2.4,2.5,2.7c1.2,0.1,2.4,0.1,3.6,0.1
			c0.6,0,0.7,0.2,0.8,0.7c0.1,2.4,0.1,2.4-2.2,2.4c-5.3,0-10.6,0-15.8,0c-0.8,0-1.2-0.1-1.1-1.1c0.1-2,0-2,2-2.1
			c3.8,0,4.4-0.6,4.5-4.5c0-8,0-16,0-24c0-3.5-0.6-4.1-4.2-4.2c-2.3,0-2.3,0-2.3-2.2c0-0.9,0.3-1,1-1c5.2,0,10.4,0,15.6,0
			c3.7,0,7.4-0.1,11,0.5c1.7,0.3,3.3,0.7,4.8,1.4c3.1,1.4,4.6,3.9,4.7,7.2c0.1,3.2-1,5.8-3.8,7.5C327.4,294.4,325.4,294.9,323,295.3
			z M308,286.7c0,2,0,4,0,6c0,0.7,0.2,0.9,0.9,0.9c2.6,0,5.3,0,7.9-0.1c2.2-0.1,4.5-0.3,6.5-1.3c2.5-1.2,3.9-3.4,3.7-6.3
			c-0.2-2.8-1.5-4.4-4.4-5.3c-0.5-0.1-1-0.3-1.5-0.4c-4.1-0.7-8.3-0.3-12.4-0.5c-0.7,0-0.7,0.4-0.7,0.8
			C308,282.7,308,284.7,308,286.7z"/>
		<path class="st0" d="M231.5,315.6c-5.8,0-11.5,0-17.3,0c-1,0-1.2-0.3-1.1-1.2c0.1-2,0-2,2-2c3.9,0,4.5-0.6,4.5-4.4
			c0-8,0-15.9,0-23.9c0-3.7-0.6-4.3-4.3-4.3c-2.2,0-2.1,0-2.2-2.2c0-0.9,0.4-1,1.1-1c7.1,0,14.2,0,21.4,0c4.5,0,9,0,13.4,0
			c0.9,0,1.1,0.2,1.1,1.1c-0.1,4.2-0.1,8.4,0,12.6c0,0.8-0.2,1-1,1c-2.1,0-2.1,0-2.3-2.1c-0.1-0.8-0.1-1.7-0.3-2.5
			c-0.8-4.5-2.8-6.3-7.4-6.8c-4.4-0.4-8.8-0.1-13.2-0.2c-0.6,0-0.8,0.2-0.8,0.8c0,4.1,0,8.2,0,12.2c0,0.5,0.1,0.7,0.7,0.7
			c2,0,3.9,0.1,5.9-0.2c2.1-0.3,2.8-1,3.2-3.1c0.2-1.1,0.3-2.1,0.3-3.2c0-0.6,0.2-0.9,0.9-0.9c2.3,0,2.3-0.1,2.3,2.3
			c0,5.2,0,10.5,0,15.7c0,1-0.2,1.3-1.2,1.3c-2-0.1-2,0-2.1-2c-0.1-1.1-0.2-2.2-0.5-3.3c-0.4-1.9-1.6-2.8-3.4-3.1
			c-1.8-0.3-3.7-0.1-5.5-0.2c-0.6,0-0.7,0.2-0.7,0.7c0,4.8,0,9.6,0,14.4c0,0.6,0.2,0.7,0.8,0.7c4.4-0.1,8.9,0.2,13.3-0.2
			c4.2-0.4,6.1-2,7-6.1c0.4-1.8,0.5-3.7,0.6-5.6c0-0.6,0.2-0.8,0.8-0.8c2.4,0,2.4-0.1,2.4,2.3c0,4.2,0,8.3,0,12.5
			c0,1-0.3,1.2-1.2,1.2C243.1,315.6,237.3,315.6,231.5,315.6z"/>
		<path class="st0" d="M132.6,315.6c-5.8,0-11.6,0-17.4,0c-0.8,0-1.1-0.2-1.1-1c0-2.1,0-2.1,2.1-2.1c3.8,0,4.4-0.6,4.4-4.4
			c0-8,0-16,0-24c0-3.6-0.6-4.2-4.3-4.2c-2.3,0-2.2,0-2.2-2.3c0-0.8,0.3-0.9,1-0.9c3.6,0,7.2,0,10.8,0c8,0,16,0,24,0
			c1.1,0,1.3,0.3,1.3,1.3c-0.1,4.1-0.1,8.2,0,12.2c0,0.9-0.1,1.2-1.1,1.1c-2-0.1-2,0-2.1-1.9c-0.1-0.9-0.1-1.8-0.3-2.6
			c-0.8-4.5-2.6-6.2-7.1-6.8c-4.5-0.5-9-0.1-13.6-0.3c-0.6,0-0.7,0.2-0.7,0.7c0,4.1,0,8.2,0,12.2c0,0.5,0.1,0.7,0.7,0.7
			c2-0.1,3.9,0.1,5.9-0.2c2.1-0.3,2.8-1,3.2-3.1c0.2-1.1,0.3-2.2,0.3-3.3c0-0.6,0.2-0.8,0.9-0.8c2.4,0,2.4-0.1,2.4,2.3
			c0,5.2,0,10.5,0,15.7c0,1-0.1,1.3-1.2,1.3c-2-0.1-2,0-2.1-2c-0.1-1.2-0.2-2.3-0.5-3.4c-0.4-1.6-1.4-2.6-3-2.9c-2-0.4-4-0.2-6-0.3
			c-0.5,0-0.6,0.3-0.6,0.7c0,4.8,0,9.7,0,14.5c0,0.4,0,0.6,0.5,0.6c5-0.2,9.9,0.4,14.8-0.4c3.2-0.5,5-2.4,5.6-5.5
			c0.4-1.9,0.6-3.9,0.6-5.8c0-0.7,0.1-1,0.9-1c2.2,0,2.2,0,2.2,2.2c0,4.2,0,8.4,0,12.6c0,0.8-0.2,1.1-1.1,1.1
			C144.3,315.6,138.5,315.6,132.6,315.6z"/>
		<path class="st0" d="M355.8,296.2c0.7-1,1.2-2,1.8-2.9c2.2-3.5,4.3-6.9,6.5-10.4c0.4-0.7,1.2-1.5,0.7-2.4
			c-0.5-0.9-1.5-0.7-2.4-0.7c-0.4,0-0.9,0-1.3,0c-0.7,0-1.7,0.3-1.9-0.2c-0.3-0.7-0.1-1.7-0.1-2.6c0-0.4,0.3-0.4,0.6-0.4
			c4.9,0,9.8,0,14.6,0c0.5,0,0.7,0.1,0.6,0.6c0,0.1,0,0.2,0,0.4c0,0.7,0.2,1.5-0.1,2c-0.3,0.5-1.2,0.1-1.8,0.2
			c-1.2,0.2-2.3,0.6-3.2,1.6c-0.9,1-1.6,2.1-2.4,3.2c-3.1,4.9-6.1,9.8-9.2,14.8c-0.4,0.6-0.5,1.1-0.5,1.8c0,2.8,0,5.5,0.1,8.3
			c0,2.2,0.6,2.8,2.8,3c1.4,0.1,2.8,0.1,4.2,0.1c0.6,0,0.7,0.2,0.8,0.8c0.1,2.4,0.1,2.4-2.3,2.4c-5.9,0-11.8,0-17.8,0
			c-0.9,0-1.2-0.2-1.2-1.2c0.1-2,0-2,2-2c1.2,0,2.5,0,3.7-0.2c1.1-0.2,1.7-0.7,1.9-1.8c0.4-3.3,0.1-6.6,0.2-9.9
			c0-0.4-0.3-0.7-0.5-1.1c-3.2-5.3-6.5-10.5-9.8-15.8c-1.4-2.3-3.1-4.1-6.1-3.8c-0.5,0-0.6-0.1-0.6-0.6c-0.2-2.5-0.3-2.5,2.3-2.5
			c4.8,0,9.7,0,14.5,0c0.8,0,1.2,0.1,1.2,1.1c-0.1,2.1,0,2.1-2.1,2.1c-0.8,0-1.6,0-2.4,0c-1.2,0.1-1.6,0.7-1.2,1.9
			c0.1,0.3,0.2,0.6,0.4,0.9C350.4,287.2,353,291.6,355.8,296.2z"/>
		<path class="st0" d="M274.1,315.6c-5.6,0-11.1,0-16.7,0c-0.9,0-1.2-0.2-1.2-1.2c0.1-2,0-2,2-2c3.9,0,4.5-0.6,4.5-4.5
			c0-8,0-15.9,0-23.9c0-3.6-0.6-4.2-4.3-4.2c-2.4,0-2.4,0-2.2-2.5c0-0.5,0.2-0.7,0.7-0.7c5.9,0,11.8,0,17.8,0c0.7,0,0.8,0.3,0.8,0.9
			c0,2.3,0.1,2.3-2.2,2.3c-0.9,0-1.8,0-2.8,0.2c-1.2,0.2-1.8,0.9-1.9,2.1c-0.1,0.8-0.1,1.6-0.1,2.4c0,8.9,0,17.8,0,26.7
			c0,1,0.1,1.3,1.2,1.3c3.9-0.1,7.8,0.2,11.6-0.2c1-0.1,2-0.3,2.9-0.6c3.1-1,3.9-3.5,4.3-6.3c0.3-1.7,0.3-3.3,0.3-5c0-0.8,0.1-1,1-1
			c2.2,0,2.2,0,2.2,2.2c0,4.4,0,8.7,0,13.1c0,0.9-0.2,1.1-1.1,1.1C285.3,315.6,279.7,315.6,274.1,315.6z"/>
		<path class="st0" d="M86.1,310.5c1.3,1.8,3.1,2.4,5.1,2.7c4.7,0.5,7.9-2,8-6.8c0.2-7.9,0.2-15.8,0-23.6c0-2.1-0.5-2.6-2.6-2.8
			c-1.1-0.1-2.2-0.1-3.2-0.1c-0.6,0-0.9-0.1-0.9-0.8c0-2.3-0.1-2.3,2.3-2.3c5,0,10.1,0,15.1,0c1,0,1.4,0.2,1.2,1.2
			c0,0.1,0,0.2,0,0.2c0,1.7,0,1.7-1.7,1.7c-3.9,0-4.4,0.5-4.4,4.4c0,6.7,0,13.4,0,20.2c0,1.8-0.3,3.5-0.8,5.2
			c-1,3.5-3.2,5.6-6.7,6.4c-3.4,0.7-6.8,0.8-10-0.5c-4-1.6-6.1-4.7-5.8-8.5c0.2-2.9,2.5-4.7,5.3-4.2c1.5,0.2,2.7,1.4,2.9,3
			c0.3,2-0.5,3.5-2,4.2C87.3,310.2,86.8,310.3,86.1,310.5z"/>
		<path class="st0" d="M228.7,324c0.1-0.1,0.2-0.2,0.2-0.2c4.1,0,8.2-0.3,12.3,0.2c1.2,0.1,2.3,0.5,3.4,1.2c3.3,2.1,3.1,6.5-0.2,8.3
			c-0.3,0.1-0.6,0.3-0.8,0.4c0.2,0.3,0.5,0.3,0.8,0.4c1.9,0.7,3.3,1.9,3.6,4.1c0.3,2.3-0.7,4.1-2.6,5.4c-1.2,0.9-2.7,1.1-4.1,1.2
			c-4,0.1-8.1,0-12.1,0.1c-0.1,0-0.2-0.1-0.4-0.1c0.2-0.5,0.7-0.4,1-0.4c1.2,0,1.9-0.6,2-1.8c0.1-0.5,0.1-1,0.1-1.5
			c0-4.6,0-9.2,0-13.8c0-0.3,0-0.6,0-1c-0.2-1.8-0.6-2.2-2.4-2.3C229.2,324.2,228.9,324.3,228.7,324z M234.9,339.1
			c0,1.2,0,2.4,0,3.6c0,0.5,0.1,0.8,0.7,0.9c1.8,0.3,3.6,0.5,5.4-0.1c2-0.7,3.2-2.1,3.2-4c0.1-1.9-1-3.5-2.9-4.3
			c-1.9-0.8-3.8-0.7-5.8-0.6c-0.6,0-0.7,0.4-0.7,0.9C234.9,336.7,234.9,337.9,234.9,339.1z M234.9,329c0,1,0.1,2.1,0,3.1
			c-0.1,0.8,0.3,1,1,1.1c1.4,0.1,2.8,0.1,4.2-0.1c2-0.4,3.3-1.5,3.5-3.2c0.3-1.9-0.6-3.6-2.5-4.5c-1.7-0.8-3.5-0.8-5.4-0.5
			c-0.6,0.1-0.8,0.3-0.8,0.9C234.9,326.9,234.9,328,234.9,329z"/>
		<path class="st0" d="M195,345c-3.1,0-6.1,0-9.3,0c0.4-0.5,0.9-0.4,1.3-0.4c1-0.1,1.6-0.6,1.8-1.6c0.1-0.6,0.2-1.2,0.2-1.8
			c0-4.5,0.1-9,0-13.5c-0.1-2.5,0.5-3-3-3.6c0-0.5,0.4-0.3,0.6-0.3c4.8,0,9.6,0,14.4,0c0.4,0,0.8-0.2,0.8,0.5c0,1.4,0,2.9,0,4.3
			c-0.7-0.2-0.6-0.8-0.7-1.1c-0.5-1.5-1.5-2.4-3.1-2.4c-1.8-0.1-3.5,0-5.3-0.1c-0.6,0-0.7,0.2-0.6,0.7c0,2.3,0,4.6,0,7
			c0,0.6,0.2,0.8,0.8,0.7c1,0,1.9,0,2.9,0c1.9,0,2.3-0.4,2.8-2.3c0.1-0.3-0.1-0.9,0.5-0.8c0.6,0,0.3,0.6,0.3,0.9c0,1.9,0,3.8,0,5.8
			c0,0.3,0.2,0.7-0.3,0.8c-0.5,0.1-0.4-0.4-0.4-0.7c-0.4-1.9-0.9-2.4-2.9-2.4c-1.2,0-2.8-0.5-3.4,0.2c-0.6,0.7-0.2,2.2-0.2,3.4
			c0,1.4,0,2.7,0,4.1c0,1.6,0.5,2.2,2.2,2.4C194.4,344.7,194.8,344.5,195,345z"/>
		<path class="st0" d="M228.2,342.4c0.1,1.1-1.3,2.7-2.7,2.9c-1.3,0.2-1.8-0.3-2.4-2.4c-0.6,0.5-1.2,1-1.9,1.5
			c-1.7,1.3-3.8,1.2-5.1-0.2c-1.3-1.4-1.2-3.9,0.1-5.4c0.8-0.8,1.8-1.4,2.8-1.8c1.1-0.5,2.3-0.9,3.4-1.3c0.5-0.2,0.7-0.5,0.7-1
			c0-2.1-0.7-3.3-2.2-3.5c-1.6-0.2-2.6,0.6-2.6,2.2c0,0.7,0,1.4-0.8,1.7c-0.5,0.2-1,0.2-1.4-0.3c-0.6-0.5-0.6-1.2-0.3-1.9
			c0.7-1.9,2.4-2.5,4.2-2.8c0.6-0.1,1.2,0,1.8,0c2.8,0.1,4,1.4,4,4.2c0,2.2,0,4.5,0,6.7c0,0.8-0.3,1.8,0.5,2.2
			C227.1,343.7,227.5,342.7,228.2,342.4z M223.2,336.5c-1.4,0.7-2.7,1.2-3.9,1.8c-0.7,0.3-1.1,0.9-1.3,1.6c-0.3,1.1-0.1,2.1,0.7,2.9
			c0.7,0.6,1.5,0.8,2.3,0.4c0.9-0.5,2.1-0.7,2.2-1.9C223.3,339.8,223.2,338.2,223.2,336.5z"/>
		<path class="st0" d="M257.8,345.6c-4.2,0-7.2-3.3-7.2-7.6c0-3.4,2.2-6.6,5.1-7.5c4.4-1.4,8.7,2,8.9,6.9c0.1,3.9-2.2,7.2-5.7,8
			C258.5,345.5,258,345.6,257.8,345.6z M261.6,338.7c0-2.1-0.3-4.1-1.5-5.8c-0.8-1.1-1.8-1.8-3.2-1.7c-1.5,0.2-2.4,1.1-2.8,2.5
			c-0.9,3.1-0.6,6,1.1,8.8c0.2,0.4,0.6,0.8,1,1.1c1.6,1.4,3.9,0.9,4.8-1C261.5,341.4,261.6,340,261.6,338.7z"/>
		<path class="st0" d="M321.1,334.5c-1.8,0.6-3.5,1-5.4,1c-7.8-0.1-15.7-0.1-23.5,0c-1.8,0-3.4-0.5-5.1-1c1.3-0.4,2.6-1,4-1
			c8.7,0,17.4,0,26.1,0C318.5,333.6,319.8,334.2,321.1,334.5z"/>
		<path class="st0" d="M134,333.6c1.6-0.5,3.3-1,5-1c7.9,0,15.8,0.1,23.6,0c1.9,0,3.6,0.4,5.4,1c-1.3,0.4-2.6,1-3.9,1
			c-8.7,0-17.4,0-26.1,0C136.5,334.5,135.3,333.9,134,333.6z"/>
		<path class="st0" d="M208.5,333.3c0.8-1.1,1.3-1.9,2.1-2.5c1-0.7,2.2-0.8,3,0c0.6,0.5,0.8,1.2,0.4,1.9c-0.4,0.7-1.1,0.9-1.9,0.5
			c-0.1,0-0.1-0.1-0.2-0.1c-0.6-0.2-1.1-1-1.8-0.5c-0.8,0.7-1.6,1.5-1.6,2.7c0,2.2,0,4.5,0,6.7c0,1.8,0.3,2.2,2.1,2.6
			c0.2,0,0.3,0.1,0.4,0.5c-2.5,0.1-4.9,0.1-7.5,0c0.1-0.2,0.1-0.3,0.1-0.3c2.2-0.8,2.2-0.8,2.2-3.3c0-2.4,0-4.7-0.1-7.1
			c-0.1-1.8-0.2-1.8-1.9-1.8c-0.2,0-0.3,0-0.4-0.2c-0.1-0.2,0-0.3,0.2-0.4c1.4-0.6,2.8-1.2,4.2-1.8c0.4-0.2,0.6,0.1,0.6,0.6
			C208.5,331.5,208.5,332.2,208.5,333.3z"/>
		<path class="st0" d="M308.8,223.6c-7.3,1.1-14.6,1.1-22,0C289.6,222.1,305,222,308.8,223.6z"/>
		<path class="st0" d="M167.9,223.5c-4.6,1.3-18.9,1.3-22.1,0C148.7,222.1,164.3,222,167.9,223.5z"/>
		<path class="st0" d="M318.8,223.5c3.7-1.4,15.3-1.4,19.5-0.1C336,224.8,323.6,224.9,318.8,223.5z"/>
		<path class="st0" d="M135.6,223.7c-6.4,1-12.9,1-19.3,0c0-0.2,0-0.4,0-0.6c6.4-1.1,12.9-1,19.3,0
			C135.6,223.3,135.6,223.5,135.6,223.7z"/>
		<path class="st1" d="M220.6,248.7C220.7,248.7,220.7,248.7,220.6,248.7c0.1,0,0.1,0.1,0.1,0.1
			C220.7,248.9,220.6,248.9,220.6,248.7C220.6,248.7,220.6,248.7,220.6,248.7z"/>
		<path class="st1" d="M233.8,249.4c-0.1,0.1-0.2,0.2-0.2,0.2c-0.2-0.1-0.1-0.3,0-0.4C233.7,249.3,233.8,249.4,233.8,249.4z"/>
		<path class="st0" d="M294.1,170.8c-6.3,1.2-12.7,1.2-19.3,0.1C277.2,169.3,290.5,169.2,294.1,170.8z"/>
		<path class="st0" d="M272,176.2c5.8-1.3,11.6-1.3,17.4,0C283.6,177.5,277.8,177.5,272,176.2z"/>
		<path class="st0" d="M285.1,181.7c-5.6,1.4-11.1,1.4-16.7,0C273.9,180.3,279.5,180.4,285.1,181.7z"/>
		<path class="st0" d="M280.3,187.1c-3.9,1.4-10.7,1.4-14.5,0C270.6,185.8,275.4,185.9,280.3,187.1z"/>
		<path class="st0" d="M263.7,192.7c4.2-1.3,8.1-1.3,12.3,0C271.8,194.1,267.9,194.1,263.7,192.7z"/>
		<path class="st0" d="M260.8,198.3c3.3-1.4,7.2-1.3,10.1,0C267.6,199.5,264.3,199.5,260.8,198.3z"/>
		<path class="st0" d="M160.9,170.5c6.3-1.2,12.7-1.2,19.3-0.1C177.8,172,164.6,172.1,160.9,170.5z"/>
		<path class="st0" d="M183.1,176.1c-3.8,1.4-13.6,1.4-17.4,0C171.4,174.8,177.3,174.9,183.1,176.1z"/>
		<path class="st0" d="M186.7,181.8c-5.6,1.3-11.1,1.2-16.9,0.1C172.3,180.3,182.2,180.2,186.7,181.8z"/>
		<path class="st0" d="M189.3,187.2c-4.9,1.4-9.7,1.4-14.5,0C179.6,185.8,184.5,185.9,189.3,187.2z"/>
		<path class="st0" d="M179.3,192.7c3.9-1.3,7.8-1.3,12,0C187.1,194.1,183.2,194,179.3,192.7z"/>
		<path class="st0" d="M183.9,198.2c3.9-1.4,6.9-1.2,10.3,0C190.8,199.5,187.5,199.5,183.9,198.2z"/>
		<path class="st0" d="M259.6,126.8c1.9,0.2,3.5,0.7,5.1,1.5c10.4,5.2,20.9,10.3,31.3,15.4c1.5,0.8,2.9,1.8,3.9,3.4
			c-1.9-0.6-3.6-0.9-5.3-1.8c-10.6-5.3-21.2-10.5-31.9-15.7C261.5,129,260.6,128,259.6,126.8z"/>
		<path class="st0" d="M287.3,148.2c-2-0.1-3.6-0.7-5.3-1.5c-5.5-2.8-11-5.4-16.5-8.1c-1.3-0.6-2.3-1.7-3.3-2.9
			c1.9,0.2,3.4,0.6,5,1.4c5.4,2.8,10.9,5.4,16.4,8.1C285.1,145.9,286.3,146.8,287.3,148.2z"/>
		<path class="st0" d="M267.1,123c1.9,0.2,3.5,0.6,5.1,1.4c5.4,2.7,10.8,5.3,16.2,8c1.5,0.7,2.8,1.7,3.7,3.1c-1.8-0.2-3.4-0.6-5-1.4
			c-5.5-2.8-11.1-5.5-16.7-8.2C269,125.2,268,124.2,267.1,123z"/>
		<path class="st0" d="M153.9,147c1-1.5,2.3-2.5,3.8-3.3c10.4-5.1,20.9-10.2,31.3-15.4c1.6-0.8,3.3-1.3,5.2-1.5
			c-0.9,1.2-1.8,2.2-3.1,2.8c-6.1,3-12.2,6-18.3,9.1c-4.4,2.2-9,4.3-13.4,6.6C157.7,146.1,155.9,146.5,153.9,147z"/>
		<path class="st0" d="M186.8,122.9c-1.1,1.4-2.2,2.4-3.7,3.1c-5.9,2.9-11.8,5.8-17.7,8.7c-1.1,0.6-2.4,0.5-3.8,0.8
			c1-1.5,2.3-2.5,3.8-3.2c5.4-2.6,10.8-5.2,16.2-8C183.3,123.6,184.9,123.1,186.8,122.9z"/>
		<path class="st0" d="M191.6,135.7c-1.1,1.3-2.2,2.4-3.6,3c-5.9,2.9-11.9,5.8-17.8,8.8c-1.1,0.6-2.4,0.5-3.8,0.9
			c1.1-1.6,2.3-2.5,3.8-3.2c5.4-2.6,10.8-5.2,16.1-7.9C188,136.4,189.6,135.9,191.6,135.7z"/>
	</g>
</g>
</svg>
