<?xml version="1.0" encoding="utf-8"?>
<!-- Generator: Adobe Illustrator 25.3.1, SVG Export Plug-In . SVG Version: 6.00 Build 0)  -->
<svg version="1.1" id="Слой_1" xmlns="http://www.w3.org/2000/svg" xmlns:xlink="http://www.w3.org/1999/xlink" x="0px" y="0px"
	 viewBox="0 0 115.2 65.1" style="enable-background:new 0 0 115.2 65.1;" xml:space="preserve">
<style type="text/css">
	.st0{fill:#3A7CA4;}
	.st1{fill:#BFC3C9;}
	.st2{fill:#C0C3C9;}
	.st3{fill:#75A2BF;}
	.st4{fill:#BEC2C8;}
	.st5{fill:#FEFEFE;}
	.st6{font-family:'TimesNewRomanPSMT';}
	.st7{font-size:14px;}
	.st8{fill:none;stroke:#000000;stroke-width:0.25;stroke-miterlimit:10;}
</style>
<g>
	<path class="st0" d="M68.5,39.3c-0.2,0-0.3,0-0.3-0.2c0-0.2,0-0.3,0.2-0.3c0.2,0,0.4,0,0.6-0.1c0.8-0.1,1.1-0.4,1.2-1.3
		c0-0.4,0.1-0.8,0.1-1.2c0-4.2,0-8.5,0-12.7c0-0.4,0-0.7,0-1.1c-0.1-1-0.4-1.4-1.4-1.5c-0.1,0-0.2,0-0.3,0c-0.3,0-0.3-0.1-0.3-0.3
		c0-0.3,0.2-0.2,0.3-0.2c2,0.1,4,0.1,6,0c0.7,0,1.4,0,2.1,0c1.3-0.1,2.6,0.2,3.8,0.8c1.1,0.6,1.9,1.5,2.1,2.8c0.2,1.2-0.2,2.4-1,3.3
		c-0.9,1-2,1.6-3.3,1.9c-0.2,0.1-0.4,0-0.5,0.1c0.2-0.1,0.4,0,0.6,0c1.2,0.2,2.4,0.5,3.4,1.2c1,0.7,1.8,1.6,2.1,2.8
		c0.4,1.8-0.3,3.8-2,4.9c-1.1,0.7-2.4,1.1-3.7,1.2"/>
	<path class="st0" d="M23.3,20.5c2.9,0,5.1,0,7.2-0.1c0.3,0,0.4,0,0.4,0.4c-0.1,1.7-0.2,3.4-0.1,5.2c0,0.1,0.1,0.4-0.2,0.4
		c-0.2,0-0.4,0-0.5-0.3c-0.2-1-0.4-2.1-0.8-3c-0.6-1.2-1.6-1.9-2.9-2c-0.8-0.1-1.7-0.1-2.5,0c-0.8,0.1-1.2,0.4-1.2,1.2
		c-0.1,2.4,0,4.8-0.1,7.2c0,0.2,0.1,0.3,0.3,0.2c0.3,0,0.6,0,0.9,0c1.4,0,2.2-0.6,2.7-1.9c0.2-0.5,0.3-0.9,0.4-1.4
		c0.1-0.4,0.3-0.3,0.5-0.3c0.3,0,0.2,0.2,0.2,0.4c-0.1,2.3-0.1,4.6,0.1,6.8c0,0.1,0.2,0.4-0.2,0.4c-0.2,0-0.5,0-0.5-0.3
		c0-0.4-0.2-0.8-0.3-1.2c-0.4-1.3-1.1-1.8-2.4-1.9c-0.4,0-0.8,0-1.3,0c-0.2,0-0.2,0.1-0.2,0.3c0,2.2-0.1,4.5,0.1,6.7
		c0.1,0.9,0.4,1.3,1.3,1.5c0.4,0.1,0.7,0.1,1.1,0.1c0.2,0,0.4,0,0.4,0.3c0,0.3-0.2,0.3-0.4,0.2c-2.3-0.1-4.7-0.1-7,0
		c-0.3,0-0.6,0-0.9,0.1c-0.2,0-0.3,0-0.3-0.2c0-0.2,0-0.4,0.3-0.4c0.2,0,0.5-0.1,0.7-0.1c0.6-0.1,0.9-0.4,1-1
		c0.1-0.4,0.1-0.9,0.1-1.3c0-4.5,0-9,0-13.5c0-0.3,0-0.5-0.1-0.8c-0.1-0.7-0.4-0.9-1.1-1.1c-0.2,0-0.4-0.1-0.5-0.1
		c-0.2,0-0.4,0-0.4-0.3c0-0.3,0.2-0.2,0.4-0.2C19.5,20.4,21.7,20.5,23.3,20.5z"/>
	<path class="st0" d="M89.1,32.3c0-1.1,0.1-2.2,0.5-3.3c0.8-2.1,2.3-3.4,4.5-3.8c1.9-0.3,3.6-0.1,5.2,0.9c1.1,0.7,1.8,1.8,2.2,3.1
		c0.6,2.2,0.6,4.5-0.1,6.7c-0.8,2.1-2.4,3.3-4.6,3.6c-1.4,0.2-2.7,0.1-4.1-0.4c-1.6-0.7-2.6-1.9-3.2-3.5
		C89.2,34.6,89.1,33.5,89.1,32.3z"/>
	<path class="st0" d="M54.2,26.4c0.2,0.1,0.3,0.2,0.5,0.2c0.9,0.5,1.2,1.8,0.7,2.7c-0.4,0.6-1.3,1-2.2,0.8c-0.6-0.1-1.1-0.8-1.2-1.5
		c-0.2-1.1,0.3-1.8,1.2-2.3c1.1-0.8,2.4-1,3.7-1.1c0.8,0,1.5,0,2.3,0.2c1.8,0.4,2.7,1.6,2.8,3.5c0.1,2.8,0,5.6,0.1,8.4
		c0,0.3,0,0.5,0,0.8c0.1,0.6,0.5,0.8,1.1,0.5c0.1-0.1,0.3-0.1,0.4-0.2c0.1-0.1,0.2-0.2,0.4,0c0.1,0.2,0.2,0.3-0.1,0.4
		c-1.1,0.8-2.3,1-3.6,0.7c-0.9-0.2-1.4-0.7-1.5-1.6c0-0.1-0.1-0.3-0.1-0.5c-0.4,0.6-0.9,1.1-1.5,1.5c-1.3,0.8-3.4,0.8-4.6,0
		c-1.5-1-1.9-4.1,0.3-5.5c1-0.6,2.1-1,3.2-1.3c0.7-0.2,1.4-0.4,2-0.8c0.4-0.3,0.6-0.6,0.6-1c0-0.9,0.1-1.8-0.1-2.7
		c-0.2-1.1-1-1.8-2.2-1.8c-0.7,0-1.4,0.1-2,0.6C54.3,26.3,54.3,26.3,54.2,26.4z"/>
	<path class="st0" d="M40.8,27.8c0.4-0.7,0.8-1.3,1.4-1.8c0.9-0.8,1.9-1.1,3.1-0.8c1.5,0.3,2.3,2.4,1.3,3.6
		c-0.6,0.8-1.9,0.9-2.7,0.3c-0.7-0.5-0.8-1.6-0.3-2.4c0.2-0.3,0.4-0.5,0.8-0.7c-0.8-0.2-1.4,0-1.9,0.5c-1.1,0.9-1.6,2.1-1.6,3.5
		c0,2.2,0,4.3,0,6.5c0,0.2,0,0.5,0.1,0.7c0.2,0.8,0.6,1.3,1.5,1.4c0.2,0,0.5,0.1,0.7,0.1c0.3,0,0.3,0.1,0.3,0.3
		c0,0.3-0.2,0.2-0.3,0.2c-1.9-0.1-3.8-0.1-5.7-0.1c-0.5,0-1,0-1.5,0.1c-0.2,0-0.3,0-0.3-0.3c0-0.2,0-0.3,0.2-0.3
		c1.1-0.1,1.6-0.5,1.6-1.7c0-3,0-6,0-9c0-0.3,0-0.5-0.1-0.8c-0.2-0.8-0.6-1.2-1.4-1.3c-0.3,0-0.3-0.2-0.3-0.4c0-0.3,0.2-0.2,0.3-0.2
		c1.5,0.1,3,0.1,4.5-0.3c0.3-0.1,0.3,0,0.3,0.3C40.7,26.3,40.8,27.1,40.8,27.8z"/>
	<path class="st1" d="M57.2,50.8c0.1-0.5,0.4-1.4,0.6-1.9c0,0,0,0,0.2,0c0.4,0,0.4,0,0.4,0c0.1,0.5,0.3,1.5,0.5,2.1
		c0.1-0.4,0.2-0.7,0.3-0.9c0.1-0.3,0.2-0.8,0.3-1.1c0,0,0.1,0,0.2,0c0.3,0,0.3,0,0.3,0c-0.2,0.7-0.6,2.1-0.9,2.8c0,0,0,0-0.3,0
		c-0.3,0-0.3,0-0.3,0c-0.1-0.5-0.3-1.4-0.5-2.1c-0.1,0.6-0.5,1.6-0.6,2.1c0,0-0.1,0-0.5,0c0,0,0,0-0.1-0.2c-0.2-0.8-0.7-2.4-0.7-2.4
		s-0.1-0.2-0.1-0.2h0.6"/>
	<path class="st1" d="M53.8,50.3c-0.3,0-0.7,0-0.8,0c-0.2,0-0.2,0-0.2,0c0,0.3,0.1,0.7,0.4,0.9c0.4,0.1,0.9,0.1,1.1-0.2
		c0.1-0.1,0.1-0.2,0.1-0.2h0.5c0,0,0,0.2-0.1,0.3c-0.3,0.5-1,0.8-1.6,0.6c-0.6-0.2-0.9-0.6-0.9-1.1c0-0.5-0.1-1.1,0.4-1.5
		c0.4-0.3,1-0.4,1.5-0.2c0.4,0.2,0.7,0.8,0.7,1.2c0,0.2,0,0.2,0,0.2C54.5,50.3,54,50.3,53.8,50.3z"/>
	<path class="st1" d="M70.3,48.9c0.5,0,0.5,0,0.5,0c0.2,0.6,0.6,1.5,0.8,2.1c0.2-0.7,0.6-1.5,0.9-2.1c0,0,0,0,0.1,0
		c0.3,0,0.3,0,0.3,0c-0.4,1-0.7,1.7-1.1,2.7c-0.1,0.8-0.8,1.1-1.2,1.2c0,0,0,0,0-0.2c0-0.2,0-0.2,0-0.2c0.4-0.1,0.8-0.5,0.8-0.9
		c-0.3-0.7-0.5-1.4-0.8-2.1C70.4,49.2,70.3,49,70.3,48.9z"/>
	<path class="st1" d="M50,49.3c0-0.4,0-1.2,0-1.6c0,0,0,0,0.3,0c0.3,0,0.3,0,0.3,0c0,0.9,0,2.1,0,3.2c0,0.5-0.5,0.8-0.9,0.8
		c-0.6,0-1-0.2-1.1-0.6c0-0.1-0.1-0.3-0.1-0.6h0.2h0.3c0,0.3,0.3,0.7,0.6,0.6c0.3,0,0.5-0.1,0.5-0.5C50,50.2,50,49.8,50,49.3z"/>
	<path class="st2" d="M65.9,49.7c0,0.6,0,1.4,0,1.9c0,0,0,0-0.2,0c-0.2,0-0.3,0-0.3,0c0-1.1,0-2.8,0-3.9c0,0,0,0,0.3,0
		c0.2,0,0.2,0,0.2,0C65.9,48.3,65.9,49.1,65.9,49.7z"/>
	<path class="st1" d="M69.1,49.3c-0.6,0-0.9,0.1-0.9,0.7c0,0.4,0,1.2,0,1.6c0,0,0,0-0.3,0c-0.3,0-0.2,0-0.2,0c0-0.7,0-2.1,0-2.8
		c0,0,0,0,0.4,0c0,0,0,0,0,0.3c0.3-0.4,0.7-0.4,1-0.2"/>
	<path class="st3" d="M61.1,54.2c-0.6,0-1.3,0-1.9,0c-0.1,0-0.2,0-0.2-0.1c0-0.2,0.1-0.1,0.2-0.1c1.3,0,2.6,0,3.8,0
		c0.1,0,0.2,0,0.2,0.1c0,0.2-0.1,0.1-0.2,0.1C62.3,54.2,61.7,54.2,61.1,54.2z"/>
	<path class="st1" d="M40.9,50c0.2,0,0.3,0,0.5,0c0.2,0,0.2,0.1,0.2,0.3c0,0.2-0.1,0.3-0.3,0.2c-0.3,0-0.7,0-1,0
		c-0.2,0-0.3-0.1-0.3-0.2c0-0.2,0.1-0.3,0.3-0.3C40.6,50,40.8,50,40.9,50z"/>
	<path class="st1" d="M77.4,50.5c-0.1,0-0.3,0-0.4,0c-0.2,0-0.3,0-0.3-0.3c0-0.2,0.1-0.3,0.3-0.2c0.3,0,0.6,0,0.9,0
		c0.2,0,0.3,0,0.3,0.2c0,0.2-0.1,0.3-0.3,0.3C77.7,50.5,77.5,50.5,77.4,50.5z"/>
	<path class="st4" d="M43.8,50.5c-0.1,0-0.3,0-0.4,0c-0.2,0-0.3,0-0.3-0.2c0-0.2,0.1-0.3,0.3-0.3c0.3,0,0.6,0,0.9,0
		c0.2,0,0.3,0.1,0.3,0.2c0,0.2,0,0.3-0.2,0.3C44.1,50.5,43.9,50.5,43.8,50.5z"/>
	<path class="st4" d="M80.2,50.5c-0.2,0-0.3,0-0.5,0c-0.2,0-0.2-0.1-0.2-0.2c0-0.2,0-0.3,0.2-0.3c0.3,0,0.7,0,1,0
		c0.2,0,0.2,0.1,0.2,0.2c0,0.2,0,0.3-0.2,0.3C80.6,50.5,80.4,50.5,80.2,50.5z"/>
	<path class="st5" d="M74,33.6c0-1.2,0-2.3,0-3.5c0-0.2,0.1-0.3,0.3-0.3c0.9,0,1.9,0,2.8,0.2c1.6,0.3,2.5,1.3,2.8,2.9
		c0.2,1.3,0.2,2.6-0.3,3.8c-0.5,1.2-1.4,1.8-2.6,2c-0.7,0.1-1.3,0.1-2,0c-0.4-0.1-0.7-0.4-0.8-0.8C74,37.5,74,37,74,36.6
		C74,35.6,74,34.6,74,33.6L74,33.6z"/>
	<path class="st5" d="M74,25.8c0-1,0-2,0-2.9c0-0.1,0-0.2,0-0.3c0.1-1.3,0.6-1.7,1.9-1.6c1.7,0.1,2.5,0.9,2.8,2.7
		c0.2,1.2,0.1,2.5-0.3,3.7c-0.4,1.1-1.3,1.8-2.5,1.9c-0.5,0-1.1,0-1.6,0C74,29.3,74,29.2,74,29C74,27.9,74,26.8,74,25.8
		C74,25.8,74,25.8,74,25.8z"/>
	<path class="st5" d="M92.7,32.4c0-1.4,0-2.8,0.4-4.1c0.2-0.8,0.5-1.6,1.2-2.2c0.8-0.7,1.8-0.6,2.5,0.1c0.7,0.7,1,1.6,1.2,2.5
		c0.4,1.9,0.4,3.8,0.2,5.7c-0.1,1-0.2,2.1-0.7,3c-0.2,0.5-0.5,0.9-0.9,1.2c-0.8,0.7-2,0.6-2.7-0.2c-0.7-0.9-1-1.9-1.2-3
		C92.7,34.4,92.7,33.4,92.7,32.4z"/>
	<path class="st5" d="M58.6,31.2c0,0.4,0,0.7,0,1c0,1.4,0,2.7,0,4.1c0,0.2-0.1,0.4-0.2,0.6c-0.6,0.7-1.3,1.2-2.3,1.1
		c-0.7-0.1-1.2-0.6-1.5-1.3c-0.4-1.3,0.1-2.6,1.1-3.4c0.5-0.4,1-0.7,1.6-1C57.8,32,58.2,31.7,58.6,31.2z"/>
	<path class="st5" d="M52.8,49.9c0,0,0.1-0.3,0.1-0.4c0.3-0.4,1-0.4,1.2,0.1c0.1,0.3,0.2,0.4,0.2,0.4s-0.7,0-0.9,0"/>
	<path class="st5" d="M62.5,49.9c-0.1,0-0.3,0-0.4,0c-0.1,0-0.2,0.1-0.3-0.1c0-0.1,0-0.2,0.1-0.3c0.3-0.5,1-0.5,1.3,0
		c0.1,0.2,0.1,0.4-0.2,0.4C62.8,49.9,62.6,49.9,62.5,49.9z"/>
</g>
<path class="st1" d="M62.8,50.3c-0.3,0-0.7,0-0.8,0c-0.2,0-0.2,0-0.2,0c0,0.3,0.1,0.7,0.4,0.9c0.4,0.1,0.9,0.1,1.1-0.2
	c0.1-0.1,0.1-0.2,0.1-0.2h0.5c0,0,0,0.2-0.1,0.3c-0.3,0.5-1,0.8-1.6,0.6c-0.6-0.2-0.9-0.6-0.9-1.1c0-0.5-0.1-1.1,0.4-1.5
	c0.4-0.3,1-0.4,1.5-0.2c0.4,0.2,0.7,0.8,0.7,1.2c0,0.2,0,0.2,0,0.2C63.5,50.3,63,50.3,62.8,50.3z"/>
<path class="st5" d="M61.8,49.9c0,0,0.1-0.3,0.1-0.4c0.3-0.4,1-0.4,1.2,0.1c0.1,0.3,0.2,0.4,0.2,0.4s-0.7,0-0.9,0"/>
<text transform="matrix(1 0 0 1 47.4799 12.3309)" class="st6 st7">30 см</text>
<line class="st8" x1="16.9" y1="15.9" x2="102" y2="15.9"/>
<line class="st8" x1="16.9" y1="20.6" x2="16.9" y2="15.9"/>
<line class="st8" x1="102" y1="31.2" x2="102" y2="15.9"/>
</svg>
