<svg width="470" height="420" viewBox="0 0 470 420" fill="none" xmlns="http://www.w3.org/2000/svg">
<rect width="470" height="420" rx="2" fill="white"/>
<circle cx="231.5" cy="202.5" r="182.5" fill="#1A9353"/>
<rect x="222.5" y="319.5" width="195" height="91" fill="white" stroke="black"/>
<ellipse cx="320" cy="319" rx="98" ry="19" fill="black"/>
<path d="M227 169.5H67C67 151.827 81.3269 137.5 99 137.5H113.945C115.909 137.5 117.5 135.909 117.5 133.945V132.595C117.5 117.355 129.855 105 145.095 105H148.993C165.289 105 178.5 118.211 178.5 134.507C178.5 136.16 179.84 137.5 181.493 137.5H195C212.673 137.5 227 151.827 227 169.5Z" fill="white" stroke="black"/>
<path d="M146 148C159.531 148 170.5 158.969 170.5 172.5C170.5 186.031 159.531 197 146 197C132.469 197 121.5 186.031 121.5 172.5C121.5 158.969 132.469 148 146 148Z" fill="#FFCF45" stroke="black"/>
<rect x="182.689" y="90.218" width="14.1988" height="7.4807" rx="3.74035" transform="rotate(-32.0223 182.689 90.218)" fill="white" stroke="black"/>
<rect x="229.542" y="69.8021" width="14.1988" height="7.02169" rx="3.51084" transform="rotate(-5.08964 229.542 69.8021)" fill="white" stroke="black"/>
<mask id="mask0_94_111" style="mask-type:alpha" maskUnits="userSpaceOnUse" x="147" y="75" width="202" height="202">
<circle cx="248" cy="176" r="100.5" fill="#4280C2" stroke="black"/>
</mask>
<g mask="url(#mask0_94_111)">
<circle cx="248.235" cy="176" r="100.5" fill="#4280C2" stroke="black"/>
<path d="M246.738 67.4769L245.925 60.1243L109.742 95.5528L183.083 152.601C186.359 155.148 190.742 155.806 194.663 154.339L266.387 127.488C272.98 125.02 276.282 117.633 273.686 111.156C271.192 104.932 264.162 101.865 257.826 104.237L240.705 110.647C233.621 113.299 225.761 109.87 222.972 102.912C220.07 95.6705 223.762 87.411 231.133 84.6515L237.617 82.2243C243.68 79.9546 247.445 73.8665 246.738 67.4769Z" fill="#1A9353" stroke="black"/>
<circle cx="219.957" cy="165.368" r="6.10869" fill="#1A9353" stroke="black"/>
<path d="M185.201 227.17L204.876 247.577C205.63 248.359 206.669 248.801 207.755 248.801H233.555C235.359 248.801 236.94 247.593 237.414 245.852L252.77 189.452C253.758 185.823 250.537 182.444 246.865 183.257L231.166 186.734C227.625 187.519 223.917 186.788 220.938 184.718L212.23 178.669C208.21 175.876 203.432 174.38 198.537 174.38H191C185.477 174.38 181 178.857 181 184.38V216.759C181 220.643 182.506 224.375 185.201 227.17Z" fill="#1A9353"/>
<path d="M285.179 149.274L281.537 147.631C279.338 146.639 278.511 143.94 279.777 141.886L291.826 122.338C292.78 120.79 295.137 121.215 295.49 122.999L299.299 142.22C299.697 144.231 298.51 146.218 296.551 146.821L287.999 149.451C287.069 149.737 286.066 149.674 285.179 149.274Z" fill="#1A9353"/>
<path d="M185.201 227.17L204.876 247.577C205.63 248.359 206.669 248.801 207.755 248.801H233.555C235.359 248.801 236.94 247.593 237.414 245.852L252.77 189.452C253.758 185.823 250.537 182.444 246.865 183.257L231.166 186.734C227.625 187.519 223.917 186.788 220.938 184.718L212.23 178.669C208.21 175.876 203.432 174.38 198.537 174.38H191C185.477 174.38 181 178.857 181 184.38V216.759C181 220.643 182.506 224.375 185.201 227.17Z" stroke="black"/>
<path d="M285.179 149.274L281.537 147.631C279.338 146.639 278.511 143.94 279.777 141.886L291.826 122.338C292.78 120.79 295.137 121.215 295.49 122.999L299.299 142.22C299.697 144.231 298.51 146.218 296.551 146.821L287.999 149.451C287.069 149.737 286.066 149.674 285.179 149.274Z" stroke="black"/>
<path d="M292.363 91.5102L297.039 86.1429C298.533 84.4285 301.154 84.3024 302.805 85.8656L357.37 137.515C358.412 138.502 358.846 139.972 358.506 141.366L353.038 163.831C352.391 166.487 349.33 167.726 347.018 166.269L331.441 156.45C326.296 153.207 322.005 148.777 318.928 143.532L291.82 97.3248C290.733 95.4713 290.951 93.1304 292.363 91.5102Z" fill="#1A9353" stroke="black"/>
<path d="M314.194 171.804L351.278 191.611C353.44 192.766 354.064 195.576 352.595 197.537L311.096 252.951C309.872 254.586 307.613 255.036 305.856 253.995L293.537 246.697C291.599 245.55 290.991 243.03 292.191 241.124L308.576 215.107C312.256 209.264 309.706 201.516 303.276 199.001L296.179 196.224C293.084 195.013 292.01 191.175 294.027 188.533L305.333 173.73C307.415 171.003 311.167 170.187 314.194 171.804Z" fill="#1A9353" stroke="black"/>
<circle cx="248" cy="176" r="100.5" stroke="black"/>
</g>
<path d="M408 249H290C290 236.122 300.44 225.682 313.318 225.682H324.654C326.084 225.682 327.244 224.522 327.244 223.092V222.351C327.244 211.112 336.355 202 347.595 202H350.73C362.605 202 372.231 211.626 372.231 223.501C372.231 224.706 373.208 225.682 374.412 225.682H384.682C397.56 225.682 408 236.122 408 249Z" fill="white" stroke="black"/>
<mask id="mask1_94_111" style="mask-type:alpha" maskUnits="userSpaceOnUse" x="80" y="150" width="338" height="187">
<path d="M183.576 235.265L183.735 235.522L184.038 235.498L336.511 224C363.289 224.006 383.531 244.921 397.119 267.324C403.904 278.51 409.004 290.026 412.407 299.4C414.109 304.086 415.384 308.233 416.233 311.53C417.069 314.772 417.48 317.152 417.498 318.417C416.662 320.803 413.943 323.108 409.301 325.225C404.64 327.35 398.167 329.232 390.091 330.822C373.944 334.002 351.476 335.999 324.491 336.499C297.453 336.499 272.112 334.499 253.541 331.193C244.251 329.538 236.679 327.562 231.442 325.357C228.822 324.253 226.815 323.104 225.471 321.931C224.188 320.811 223.563 319.717 223.506 318.658L224.116 317.839C224.351 317.735 224.625 317.621 224.937 317.498C226.518 316.874 228.88 316.055 230.997 315.005C232.06 314.478 233.083 313.883 233.935 313.209C234.783 312.538 235.49 311.767 235.883 310.88C236.283 309.976 236.344 308.979 235.943 307.912C235.549 306.862 234.72 305.771 233.395 304.622L233.254 304.5H160.293L80.7598 162.334L130.765 150.568L183.576 235.265Z" fill="black" stroke="black"/>
</mask>
<g mask="url(#mask1_94_111)">
<path d="M303 327V360L403.5 354.5V313.5C403.5 269.87 368.13 234.5 324.5 234.5H198.59C191.672 234.5 185.475 237.588 181.302 242.461L137.663 166.875C131.222 155.719 116.956 151.896 105.8 158.337C94.6432 164.778 90.8207 179.044 97.2618 190.2L152.86 286.5C156.969 293.616 164.562 298 172.779 298H274C290.016 298 303 310.984 303 327Z" fill="#FFCF45"/>
<path d="M331 280H198.59C186.025 280 175.84 269.814 175.84 257.25C175.84 244.686 186.025 234.5 198.59 234.5H324.5C368.13 234.5 403.5 269.87 403.5 313.5V354.5L303 360V327C303 310.984 290.016 298 274 298H172.779C164.562 298 156.969 293.616 152.86 286.5L97.2618 190.2C90.8207 179.044 94.6432 164.778 105.8 158.337C116.956 151.896 131.222 155.719 137.663 166.875L181.325 242.5" stroke="black"/>
</g>
<mask id="mask2_94_111" style="mask-type:alpha" maskUnits="userSpaceOnUse" x="184" y="242" width="31" height="31">
<circle cx="199.5" cy="257.5" r="15" fill="#D9D9D9" stroke="black"/>
</mask>
<g mask="url(#mask2_94_111)">
<circle cx="199.5" cy="257.5" r="15" stroke="black"/>
<circle cx="215.5" cy="258.5" r="15.5" fill="black"/>
</g>
<mask id="mask3_94_111" style="mask-type:alpha" maskUnits="userSpaceOnUse" x="95" y="183" width="31" height="37">
<path d="M122.939 194.509C127.168 203.674 123.289 214.508 114.279 218.933L95.7935 186.848C96.5853 186.321 97.4285 185.848 98.3195 185.437C107.623 181.144 118.645 185.206 122.939 194.509Z" fill="#D9D9D9" stroke="black"/>
</mask>
<g mask="url(#mask3_94_111)">
<path d="M122.767 195.363C127.023 204.585 122.996 215.512 113.774 219.767C104.551 224.023 93.6254 219.997 89.3695 210.774C85.5109 202.412 88.4607 192.649 95.9193 187.728C96.6865 187.222 97.5015 186.767 98.362 186.369C107.585 182.114 118.512 186.14 122.767 195.363Z" stroke="black"/>
<circle cx="113.568" cy="221.568" r="15.5" transform="rotate(65.2289 113.568 221.568)" fill="black"/>
</g>
<mask id="mask4_94_111" style="mask-type:alpha" maskUnits="userSpaceOnUse" x="120" y="46" width="177" height="92">
<path d="M146.5 136.511L121 129.506C121 129.506 133.935 76.0595 194 56.0056C204.5 52.5 204.5 52.5 223.499 49.3766L223.5 49.3765C302 38.5 296 77 296 77C296 77 246 56.5 199.5 80C153 103.5 146.5 136.511 146.5 136.511Z" fill="white" stroke="black"/>
</mask>
<g mask="url(#mask4_94_111)">
<path d="M146.5 136.511L121 129.506C121 129.506 133.935 76.0595 194 56.0056C204.5 52.5 204.5 52.5 223.499 49.3766L223.5 49.3765C302 38.5 296 77 296 77C296 77 246 56.5 199.5 80C153 103.5 146.5 136.511 146.5 136.511Z" fill="white" stroke="black"/>
<path d="M208.518 50.6277C208.518 50.6277 213.39 49.1004 234.085 46.9775C232.175 51.6479 233.796 56.6878 234.759 58.9779C235.025 59.609 234.65 60.3632 233.976 60.487C225.178 62.1032 218.335 63.795 214.756 64.7416C213.101 65.1795 211.334 64.5597 210.528 63.049C208.924 60.0422 206.801 54.827 208.518 50.6277Z" fill="black" stroke="black"/>
<path d="M180.205 60.8327C180.205 60.8327 184.469 58.0255 206.064 53.0217C205.531 57.8603 207.521 62.1654 208.696 64.2216C209.051 64.844 208.725 65.6813 208.028 65.8511C198.52 68.1698 191.6 70.8353 188.095 72.3284C186.526 72.9967 184.677 72.6976 183.665 71.3248C181.956 69.0061 179.736 65.0883 180.205 60.8327Z" fill="black" stroke="black"/>
<path d="M154.781 75.88C154.781 75.88 158.341 72.2211 178.354 62.688C178.894 67.7192 181.48 72.0795 182.768 73.9819C183.128 74.5143 182.945 75.2653 182.37 75.5524C173.526 79.9644 168.24 84.7916 165.746 87.4521C164.698 88.57 162.993 88.912 161.811 87.938C159.348 85.9102 155.586 81.9024 154.781 75.88Z" fill="black" stroke="black"/>
<path d="M136.155 100.043C136.155 100.043 136.584 92.8255 153.5 78.5C154.58 84.9805 158.771 88.3501 161.033 89.7289C161.676 90.1209 161.806 91.0905 161.24 91.587C155.263 96.8251 152.329 100.616 150.909 102.921C149.983 104.422 148.414 105.674 146.655 105.556C143.204 105.325 137.772 104.273 136.155 100.043Z" fill="black" stroke="black"/>
<path d="M260.93 57.9696L255.032 41.6298C254.064 38.9487 256.132 36.1446 258.979 36.2761L285.346 37.4937C287.349 37.5861 288.974 39.1465 289.147 41.1436L291 62.5C291 62.5 291.545 62.7586 282.273 61.3793C275.998 60.446 268.915 60.5231 264.991 60.6706C263.196 60.738 261.539 59.6589 260.93 57.9696Z" fill="black" stroke="black"/>
</g>
<circle cx="156.5" cy="123.5" r="4" fill="white" stroke="black"/>
<circle cx="276.5" cy="75.5" r="4" fill="white" stroke="black"/>
<path d="M312.07 138.802L301.325 169.469L329.086 161.243L329.058 133.769L312.07 138.802Z" fill="white" stroke="black"/>
<path d="M354.333 112.592L365.934 109.154L372.18 130.236C372.18 130.236 375.726 136.102 350.5 147.5L354.333 112.592Z" fill="white" stroke="black"/>
<path d="M335.694 153.125C319.945 159.839 302.419 165.114 288.45 168.784C274.568 172.432 265.895 186.793 269.972 200.555C269.972 200.555 320.412 191.296 352.01 176.248C353.953 175.322 355.765 174.443 357.455 173.609C373.9 165.488 377.747 149.15 372.565 131.556L371.598 128.272C371.598 128.272 368.508 139.138 335.694 153.125Z" fill="white" stroke="black"/>
<path d="M348.105 201.096L305.116 186.825L320.759 180.295L336.401 173.765L369.236 194.836L348.105 201.096Z" fill="white"/>
<path d="M305.116 186.825L348.105 201.096L369.236 194.836L336.401 173.765M344.038 149.34C369.052 137.226 371.598 128.272 371.598 128.272" stroke="black"/>
<circle cx="330" cy="168" r="5" fill="black"/>
<circle cx="316" cy="173" r="5" fill="black"/>
<circle cx="302" cy="178" r="5" fill="black"/>
<circle cx="343" cy="163" r="5" fill="black"/>
<circle cx="355" cy="156" r="5" fill="black"/>
<path d="M272.5 180.5L283.908 177.074C285.838 176.494 287.854 177.678 288.288 179.647C288.683 181.438 287.614 183.226 285.849 183.726L269 188.5L272.5 180.5Z" fill="black"/>
<path d="M205.5 174C197.492 174 191 180.492 191 188.5C191 190.675 191.479 192.738 192.337 194.59L205.5 221.415L218.663 194.59C219.521 192.738 220 190.675 220 188.5C220 180.492 213.508 174 205.5 174Z" fill="black"/>
<ellipse cx="205.645" cy="187.485" rx="8.265" ry="8.265" fill="white"/>
<path d="M261.5 111C253.492 111 247 117.492 247 125.5C247 127.675 247.479 129.738 248.337 131.59L261.5 158.415L274.663 131.59C275.521 129.738 276 127.675 276 125.5C276 117.492 269.508 111 261.5 111Z" fill="black"/>
<ellipse cx="261.645" cy="124.485" rx="8.265" ry="8.265" fill="white"/>
</svg>
