<svg width="148" height="73" viewBox="0 0 148 73" fill="none" xmlns="http://www.w3.org/2000/svg">
<rect width="148" height="73" fill="white"/>
<path d="M105.757 61.7574C103.414 64.1005 103.414 67.8995 105.757 70.2426C108.101 72.5858 111.899 72.5858 114.243 70.2426L110 66L105.757 61.7574ZM114.243 2.75736C111.899 0.414213 108.101 0.414213 105.757 2.75736C103.414 5.1005 103.414 8.89949 105.757 11.2426L110 7L114.243 2.75736ZM139.5 36.5L143.743 40.7426L147.985 36.5L143.743 32.2574L139.5 36.5ZM6 30.5L-1.29458e-06 30.5L-1.28439e-06 42.5L6 42.5L6 36.5L6 30.5ZM110 66L114.243 70.2426L143.743 40.7426L139.5 36.5L135.257 32.2574L105.757 61.7574L110 66ZM139.5 36.5L143.743 32.2574L114.243 2.75736L110 7L105.757 11.2426L135.257 40.7426L139.5 36.5ZM139.5 36.5L139.5 30.5L6 30.5L6 36.5L6 42.5L139.5 42.5L139.5 36.5Z" fill="black"/>
</svg>
