<svg width="470" height="420" viewBox="0 0 470 420" fill="none" xmlns="http://www.w3.org/2000/svg">
<rect width="470" height="420" rx="2" fill="white"/>
<circle cx="231.5" cy="202.5" r="182.5" fill="#F05928"/>
<path d="M219.5 345.5H149C149 358.859 136.5 368 132 370.5C127.5 373 122.842 372.5 115.5 372.5C96.7047 372.5 95.5 389.5 95.5 389.5L141.999 385.5H219.5V345.5Z" fill="white" stroke="black"/>
<path d="M110.5 373C101 374.5 96.5 384.833 96 389.5L175 385.5L181.113 378.47C183.582 375.63 187.16 374 190.923 374H213.5C216.814 374 219.5 371.314 219.5 368V346H166C166 346 160.5 373 146 373H110.5Z" fill="black" stroke="black"/>
<path d="M100 385.5H219.5V397C219.5 397.828 218.828 398.5 218 398.5H99C97.067 398.5 95.5 396.933 95.5 395V390C95.5 387.515 97.5147 385.5 100 385.5Z" fill="white" stroke="black"/>
<path d="M95 392H134V399H101C97.6863 399 95 396.314 95 393V392Z" fill="black"/>
<path d="M187 385H220V395C220 397.209 218.209 399 216 399H187V385Z" fill="black"/>
<path d="M343 347H284C284 360.359 271.5 369.5 267 372C262.5 374.5 257.842 374 250.5 374C231.705 374 230.5 391 230.5 391L308.999 387L349.5 374.5L343 347Z" fill="white" stroke="black"/>
<path d="M245.5 374.5C236 376 231.5 386.333 231 391L309 387L317.5 384.376L317.992 380.319C318.606 375.254 322.126 371.016 326.994 369.484L340.924 365.098C343.82 364.186 345.579 361.254 345.019 358.269L343 347.5H301C301 347.5 295.5 374.5 281 374.5H245.5Z" fill="black" stroke="black"/>
<path d="M230 391.5C230 388.739 232.239 386.5 235 386.5H309L349.791 373.5L352.291 385C352.5 386 352.291 386.5 351 387L309 400.5H234C231.791 400.5 230 398.709 230 396.5V391.5Z" fill="white"/>
<path d="M322.291 383L349.791 373.5L352.291 385C351.48 385.811 348.427 387.616 347.337 387.976L325.5 395.196L322.291 383Z" fill="black"/>
<path d="M321.808 383.127L324.896 394.865L308.923 400H234C232.067 400 230.5 398.433 230.5 396.5V391.5C230.5 389.015 232.515 387 235 387H309.078L309.151 386.977L321.763 382.957L321.808 383.127ZM351.74 384.822C351.304 385.188 350.517 385.717 349.662 386.228C348.661 386.825 347.668 387.34 347.181 387.501L325.848 394.554L322.892 383.32L349.422 374.156L351.74 384.822Z" stroke="black"/>
<path d="M230 393.5H269V400.5H236C232.686 400.5 230 397.814 230 394.5V393.5Z" fill="black"/>
<path d="M184 175.5H194H233H248.5L283.5 265L345.5 333L248.5 335.5L221.5 284.712V331L154.5 332.605L138 333L178.622 197.5L184 175.5Z" fill="white"/>
<path d="M215.924 211.712V270.712L221.5 284.712M221.5 284.712L248.5 335.5L345.5 333L283.5 265L248.5 175.5H184L178.622 197.5L138 333L221.5 331V284.712ZM154.5 332.605L194 175.5M233 175.5L260.5 270.712L297.5 333" stroke="black"/>
<path d="M184.378 176L176.5 207C176.5 207 183.122 204.5 187 196.5C190.878 188.5 193.5 176 193.5 176H184.378Z" fill="black" stroke="black"/>
<path d="M248.5 176L258.5 208C258.5 208 251.5 207 243.5 197C235.5 187 234 176 234 176H248.5Z" fill="black" stroke="black"/>
<rect x="247.5" y="331.5" width="112" height="16" rx="8" fill="white" stroke="black"/>
<rect x="132.5" y="331.5" width="100" height="16" rx="8" fill="white" stroke="black"/>
<path d="M261 93.5C267.904 93.5 273.5 99.0964 273.5 106V155.5H232.5V93.5H261Z" fill="black" stroke="white"/>
<path d="M251 93.5C257.904 93.5 263.5 99.0964 263.5 106V155.5H222.5V93.5H251Z" fill="black" stroke="white"/>
<path d="M276.907 84.3019L272.184 77.5407C272.184 77.5407 269.028 78.9085 265.462 82.5648C261.897 86.2211 261.293 92.7038 261.293 92.7038C261.293 92.7038 265.424 88.9686 268.437 87.3138C273.036 84.7873 276.907 84.3019 276.907 84.3019Z" fill="white" stroke="black"/>
<path d="M213.5 87.3135L213.372 87.1709C211.105 84.6493 210.088 83.4763 209.463 82.1299C208.834 80.7752 208.595 79.2355 207.992 75.9111L207.918 75.5H204.316C203.284 75.5 202.559 74.4808 202.899 73.5059L209.767 53.8223C212.82 51.7274 216.516 50.5 220.5 50.5C230.993 50.5001 239.5 59.0066 239.5 69.5C239.5 76.8296 235.349 83.191 229.268 86.3604L229 86.5V93.5H213.5V87.3135Z" fill="white" stroke="black"/>
<path d="M241.694 56.0571L222.723 55L238.795 72.1377L240.791 72.2489C243.549 72.4026 245.908 70.292 246.062 67.5349L246.408 61.3275C246.561 58.5704 244.451 56.2107 241.694 56.0571Z" fill="black"/>
<ellipse cx="232.5" cy="64.5" rx="4.5" ry="3.5" fill="white"/>
<path d="M225.5 43.5C236.558 44.0451 238.708 55.9704 238.708 55.9704L209.5 54C209.5 54 214.442 42.9549 225.5 43.5Z" fill="white"/>
<path d="M209.5 54L238.708 55.9704C238.708 55.9704 236.558 44.0451 225.5 43.5C214.442 42.9549 209.5 54 209.5 54ZM209.5 54L185.5 52.5" stroke="black"/>
<circle cx="226" cy="41" r="2" fill="black"/>
<path d="M174 180.5L210 95.5L139.064 146.169C137.56 147.243 135.516 147.147 134.119 145.937L114 128.5L98.5 169C98.5 169 122 195.5 136.5 195.5C151 195.5 174 180.5 174 180.5Z" fill="black" stroke="black"/>
<path d="M184.5 174.5L197.302 137.892C202.142 124.051 186.292 112.202 174.386 120.762L139.066 146.155C137.562 147.237 135.512 147.143 134.112 145.93L114 128.5L98.5 169C98.5 169 122 195.5 136.5 195.5C151 195.5 184.5 174.5 184.5 174.5Z" fill="white" stroke="black"/>
<rect x="100" y="134" width="21" height="42" rx="10.5" fill="black"/>
<rect x="118.714" y="95.6004" width="13" height="49" rx="6.5" transform="rotate(13.1093 118.714 95.6004)" fill="white" stroke="black"/>
<path d="M127.824 102.394L128.798 102.621C129.604 102.809 130.106 103.615 129.918 104.422L128.557 110.266C128.495 110.535 128.226 110.702 127.957 110.639L126.009 110.186C124.127 109.747 122.956 107.866 123.394 105.983L123.621 105.009C124.06 103.127 125.941 101.956 127.824 102.394Z" fill="white" stroke="black"/>
<circle cx="35.5" cy="98.5" r="7" fill="white" stroke="black"/>
<circle cx="35.5" cy="113.5" r="7" fill="white" stroke="black"/>
<circle cx="35.5" cy="128.5" r="7" fill="white" stroke="black"/>
<circle cx="35.5" cy="143.5" r="7" fill="white" stroke="black"/>
<path d="M200.667 101.667C207.787 85.873 230.213 85.873 237.333 101.667L266.367 166.068C269.947 174.01 264.139 183 255.427 183H182.573C173.861 183 168.053 174.01 171.633 166.068L200.667 101.667Z" fill="white" stroke="black"/>
<path d="M235 97.5C235 97.5 230.5 101 229 120.5C227.5 140 235.5 143.5 235.5 143.5" stroke="black" stroke-width="6"/>
<path d="M235 98L322.207 215.151C322.602 215.682 322.382 216.444 321.764 216.682L315.743 219L320.5 221.066C321.146 221.346 321.673 221.845 321.988 222.476L323.5 225.5C323.5 225.5 326.707 232.57 322 235C317.772 237.183 313.781 233.054 312.161 231.028C311.63 230.364 311.084 229.704 310.371 229.24C309.389 228.6 307.927 227.882 307 228.5C305.911 229.226 305.761 230.013 305.911 231.137C306.039 232.094 306.421 232.997 306.902 233.835L308.338 236.339L309.381 238.157C310.121 239.448 311.029 240.702 312.373 241.343C313.19 241.732 314.068 241.968 315 242C322 242.241 328.5 233.5 334 240.5C335.986 243.028 335.038 245.861 332.663 248.5C328.46 253.168 319.791 257.229 315 257.92C309.258 258.747 298.535 254.617 293.822 252.635C292.298 251.994 291.056 250.854 290.229 249.422L280.5 232.57L267.459 237.592C266.933 237.794 266.343 237.522 266.156 236.99L232.623 141.687C232.623 141.687 229.268 135.111 230.133 118.627C230.999 102.142 235 98 235 98Z" fill="white"/>
<path d="M280.5 232.57L267.459 237.592C266.933 237.794 266.343 237.522 266.156 236.99L232.623 141.687C232.623 141.687 229.268 135.111 230.133 118.627C230.999 102.142 235 98 235 98L322.207 215.151C322.602 215.682 322.382 216.444 321.764 216.682L315.743 219M280.5 232.57L290.229 249.422C291.056 250.854 292.298 251.994 293.822 252.635C298.535 254.617 309.258 258.747 315 257.92C319.791 257.229 328.46 253.168 332.663 248.5M280.5 232.57L315.743 219M315.743 219L320.5 221.066C321.146 221.346 321.673 221.845 321.988 222.476L323.5 225.5C323.5 225.5 326.707 232.57 322 235C317.772 237.183 313.781 233.054 312.161 231.028C311.63 230.364 311.084 229.704 310.371 229.24C309.389 228.6 307.927 227.882 307 228.5C305.911 229.226 305.761 230.013 305.911 231.137C306.039 232.094 306.421 232.997 306.902 233.835L308.338 236.339L309.381 238.157C310.121 239.448 311.029 240.702 312.373 241.343C313.19 241.732 314.068 241.968 315 242C322 242.241 328.5 233.5 334 240.5C335.986 243.028 335.038 245.861 332.663 248.5M332.663 248.5C332.663 248.5 331.5 246.5 329.5 246C327.5 245.5 325.5 247.5 325.5 247.5" stroke="black"/>
<circle cx="319" cy="230" r="3.5" fill="white" stroke="black"/>
<path d="M318.798 226.547C318.894 226.687 319.008 226.892 319.084 227.144C319.227 227.619 319.248 228.317 318.62 229.17C318.021 229.75 317.211 229.871 316.476 229.814C316.109 229.786 315.782 229.715 315.546 229.65C315.537 229.648 315.528 229.644 315.519 229.642C315.69 227.953 317.063 226.62 318.769 226.509C318.777 226.521 318.788 226.533 318.798 226.547Z" fill="black" stroke="black"/>
<path d="M313.469 243.817C312.106 241.237 313.066 237.994 315.614 236.573V236.573C318.162 235.152 321.333 236.091 322.697 238.67L400.523 385.854L393.042 390.026C392.077 390.564 390.876 390.208 390.36 389.232L313.469 243.817Z" fill="black"/>
<path d="M334.133 265.442L346.705 258.432C367.929 246.597 394.341 254.419 405.699 275.902L449.326 358.422L398.325 386.861L334.133 265.442Z" fill="black"/>
<path d="M341.797 261.176L406.513 382.707" stroke="white"/>
<circle cx="9" cy="9" r="6.5" transform="matrix(1 0 0 -1 401 399)" fill="white" stroke="black" stroke-width="5"/>
<circle cx="341.044" cy="260.015" r="1.5" fill="white" stroke="black"/>
<path d="M349.885 241.617L342.368 238.224C342.368 238.224 340.356 241.015 339.164 245.98C337.971 250.946 340.769 256.825 340.769 256.825C340.769 256.825 342.407 251.502 344.149 248.539C346.808 244.015 349.885 241.617 349.885 241.617Z" fill="white" stroke="black"/>
<rect x="43.5" y="61.5" width="73" height="111" rx="9.5" fill="white" stroke="black"/>
<path d="M73 70H87.5" stroke="black" stroke-width="2"/>
<rect x="54.5" y="84.5" width="52" height="21" rx="10.5" stroke="black"/>
<rect x="54.5" y="113.5" width="52" height="21" rx="10.5" stroke="black"/>
<rect x="54.5" y="142.5" width="52" height="21" rx="10.5" stroke="black"/>
</svg>
