<?xml version="1.0" encoding="utf-8"?>
<!-- Generator: Adobe Illustrator 25.3.1, SVG Export Plug-In . SVG Version: 6.00 Build 0)  -->
<svg version="1.1" id="Слой_1" xmlns="http://www.w3.org/2000/svg" xmlns:xlink="http://www.w3.org/1999/xlink" x="0px" y="0px"
	 viewBox="0 0 200.7 271" style="enable-background:new 0 0 200.7 271;" xml:space="preserve">
<style type="text/css">
	.st0{fill:#3C7DA6;}
</style>
<path class="st0" d="M31.1,135.5c0-31.5,0-63,0-94.4c0-3.8-0.1-7.6-0.7-11.4C28.3,17,24,12.8,11.2,11.7c-1.3-0.1-2.7-0.2-4-0.2
	c-3,0.1-4.9-0.5-4.9-4.4c0-4.2,2.5-3.5,4.9-3.5c36.5,0.5,72.9,1.2,109.4,1c25.5-0.1,51,0.1,76.4-1.1c3.5-0.2,4.4,0.6,4.2,4.3
	c-1.5,20.1-2.7,40.2-2.1,60.4c0.1,4.5,0.6,9,0.7,13.5c0,2,1.4,5.1-2.7,4.8c-2.7-0.2-5.7,1.2-6.4-3.8c-1.8-13-4.7-25.8-9.6-38.1
	c-5-12.2-12-22.6-24.8-27.8c-5.6-2.3-11.4-3.7-17.4-4.1c-11.6-0.6-23.3-0.7-35,0C88.3,13.4,84,17.9,83,29.5
	c-0.6,6.5-0.7,13-0.7,19.5c0,26,0,52,0,78c0,7.5-1,6.4,6.7,6.5c3,0,6,0.1,9,0c19.3-0.3,30.6-8.4,37.1-26.6
	c2.3-6.3,4.3-12.6,5.3-19.2c0.7-5.1,4.3-3.7,7.1-3.6c3.7,0.2,2.1,3.1,2,5c-1.4,26.1-1,52.3,0.1,78.4c0.3,6.1,0.8,12.3,1.1,18.4
	c0.1,1.6,1,4.2-2.1,3.9c-2.4-0.3-6,2.1-6.8-2.5c-1-5.5-2.3-11-3.8-16.5c-5.4-19.7-16.7-29-37.1-29.9c-5-0.2-10,0.1-15-0.2
	c-3.3-0.2-3.8,1.2-3.8,4.1c0.1,27.8,0,55.6,0.1,83.5c0,3.8,0.4,7.7,0.9,11.4c1.7,12.2,7.2,17.2,20.7,18.8c4.5,0.5,9,1.1,13.4,1
	c3.7-0.1,3.8,1.7,4,4.5c0.1,3.5-1.7,3.6-4.3,3.5c-32.5-1.6-64.9-0.8-97.4-0.7c-4.7,0-9.3,0.4-14,0.7c-2.3,0.2-3.5-0.4-3.3-2.9
	c0.2-2-0.7-4.5,2.7-4.9c3.5-0.3,7-0.7,10.4-1.3c9.1-1.5,12.9-5.4,14.5-14.5c0.9-4.9,1-9.9,1-14.9C31.1,197.8,31.1,166.7,31.1,135.5z
	"/>
</svg>
